<?xml version="1.0" standalone="yes"?>
<svg xmlns="http://www.w3.org/2000/svg" width="363" height="354">
<path style="fill:#fbfbfb; stroke:none;" d="M0 0L0 19L1 19C3.04625 10.2921 10.572 3.48029 19 1L0 0z"/>
<path style="fill:#afafaf; stroke:none;" d="M1 18L2 18C5.85846 9.17328 12.284 4.47485 21 1C12.1827 -0.8237 2.79323 10.3689 1 18z"/>
<path style="fill:#6a6a6a; stroke:none;" d="M20 1L20 2L76 1L182 1L288 1L344 2C338.566 -2.11649 327.626 0 321 0L264 0L97 0L46 0C37.6876 0 27.9988 -1.36429 20 1z"/>
<path style="fill:#afafaf; stroke:none;" d="M343 0L343 1L361 13C356.924 5.96863 350.856 1.86676 343 0z"/>
<path style="fill:#fbfbfb; stroke:none;" d="M345 0L345 1C352.77 3.28638 357.549 8.48416 362 15L363 15L363 0L345 0z"/>
<path style="fill:#262424; stroke:none;" d="M22 1.51776C-8.67029 8.07114 0 52.1144 0 75L0 278L0 328C0 335.529 -0.671034 345.559 4.76852 351.682C8.90965 356.344 21.2931 354 27 354L89 354L272 354L329 354C337.268 354 347.959 355.81 355.957 353.682C363.321 351.723 362.998 340.957 363 335L363 276L363 84L363 37C363 28.4093 364.026 19.295 358.525 12.0038C350.231 1.00937 338.452 1 326 1L276 1L104 1L50 1C41.0339 1 30.7906 -0.360535 22 1.51776z"/>
<path style="fill:#6a6a6a; stroke:none;" d="M16 2L16 3L19 3L16 2M345 2L345 3L348 3L345 2M14.6667 3.33334L15.3333 3.66666L14.6667 3.33334M348.667 3.33334L349.333 3.66666L348.667 3.33334M11 6L14 4L11 6M350 4L353 6L350 4M10 6L11 7L10 6M353 6L354 7L353 6M9 7L10 8L9 7M354 7L357 10L354 7M7 8L7 10L9 8L7 8M6 10L7 11L6 10M357 10L358 11L357 10M5 11L6 12L5 11M358 11L359 12L358 11M4.33333 12.6667L4.66667 13.3333L4.33333 12.6667M359 12L360 13L359 12M360 13L362 21L363 21L360 13M3.33333 14.6667L3.66667 15.3333L3.33333 14.6667z"/>
<path style="fill:#afafaf; stroke:none;" d="M361 14L363 17L361 14z"/>
<path style="fill:#6a6a6a; stroke:none;" d="M2 16L3 17L2 16M1 18L0 24L1 24L1 18M33 18L33 19L331 19L304 18L243 18L33 18z"/>
<path style="fill:#afafaf; stroke:none;" d="M0.333333 19.6667L0.666667 20.3333L0.333333 19.6667z"/>
<path style="fill:#6a6a6a; stroke:none;" d="M30 19L31 20L30 19z"/>
<path style="fill:#dd5141; stroke:none;" d="M18 255L81 255C87.908 255 100.714 257.456 106.815 253.972C115.8 248.841 120 233.345 120 224C124.852 224 139.602 226.461 142.821 222.397C147.407 216.606 143.321 200.925 143.039 193.999C142.774 187.508 141.861 179.285 143.637 173C145.415 166.708 149.86 161.345 151.446 155C153.225 147.886 152 139.299 152 132C152 127.433 154.737 115.1 151.396 111.854C148.555 109.094 142.574 108.26 139 106.478C123.34 98.6738 117.874 95.5715 102 104.334C99.2576 105.848 91.8518 107.161 90.777 110.314C89.707 113.453 92.2065 118.038 93.1165 121C95.6866 129.365 98.3915 137.7 101.167 146C105.997 160.445 111.596 175.153 115 190L130 190C125.586 199.897 114.855 206.373 105 209.946C80.3979 218.865 39.554 216.127 26 190C30.1289 190 37.9619 191.503 41.4398 188.972C45.04 186.352 46.1474 178.039 47.4938 174C52.1556 160.015 56.7578 146.015 61.3302 132C63.7398 124.615 65.0252 110.419 74 109C71.6265 101.715 63.6804 98.9156 65 90C71.1384 92.8951 80.7416 92.1966 84 98C94.9781 94.6496 100.275 83.4292 111 79.8534C123.691 75.6222 138.744 84.4379 151 87C152.241 82.8032 153.519 74.335 150.972 70.4144C146.597 63.6793 137.743 62.1652 138.843 52C140.786 34.0504 165.576 33.1403 170.361 50C173.29 60.3177 164.074 63.0022 160.027 70.1844C157.573 74.5402 159 82.1339 159 87L198 79.304L221.985 95.6235L230.09 93.713L248 88C247.783 97.2625 242.89 103.439 235 108L235 109C244.639 110.086 246.004 124.11 248.414 132C252.606 145.728 257.394 159.272 261.586 173C262.87 177.202 264.12 186.186 267.727 188.972C270.878 191.406 278.206 190 282 190C268.471 216.079 226.43 219.285 202 209.6C192.487 205.828 181.877 200.006 178 190C182.054 190 189.912 191.512 193.298 188.972C197.907 185.515 199.389 173.317 201.167 168C207.422 149.291 218.037 127.591 220 108C211.037 106.452 203.885 97.9462 195 97.3063C189.045 96.8774 183.021 101.052 178 103.702C173.623 106.013 163.777 108.361 161.028 112.43C158.548 116.1 160 123.754 160 128C160 136.163 158.489 146.059 160.474 154C162.218 160.978 167.693 166.826 168.787 174C170.542 185.506 169 198.361 169 210C169 213.316 167.649 220.632 170.603 222.972C175.302 226.694 183.927 221.136 188.397 225.603C190.703 227.909 189.863 232.13 191.089 235C193.39 240.387 200.627 252.105 206.174 254.397C216.855 258.809 236.429 255 248 255L346 255L346 89L346 47C346 39.8819 347.034 32.0804 342.501 26.0154C336.804 18.3938 328.529 19 320 19L273 19L86 19L43 19C34.7882 19 27.0926 18.7541 21.6381 26.0401C17.0306 32.1948 18 39.7632 18 47L18 89L18 255z"/>
<path style="fill:#6a6a6a; stroke:none;" d="M333 19L334 20L333 19M27 20L28 21L27 20M336 20L337 21L336 20M26 21L27 22L26 21M24 22L25 23L24 22M339 22L340 23L339 22M23 23L24 24L23 23M340 23L341 24L340 23M22 24L23 25L22 24M341 24L342 25L341 24M342 25L343 26L342 25M20 27L21 28L20 27M19 29L20 30L19 29M344 29L345 30L344 29M18 31L19 32L18 31M345 31L346 32L345 31M152 37L153 38L152 37M156.667 37.3333L157.333 37.6667L156.667 37.3333M148 38L149 39L148 38M160 38L161 39L160 38M146 39L147 40L146 39M162 39L163 40L162 39M164 40L165 41L164 40M165 41L166 42L165 41M142 42L143 43L142 42M166 42L167 43L166 42M167 43L168 44L167 43M141 44L142 45L141 44M140 45L141 46L140 45M169 47L170 48L169 47M139 48L140 49L139 48M170 49L171 50L170 49M138 52L138 55L139 55L138 52M170 57L171 58L170 57M139 58L140 59L139 58M169 59L170 60L169 59M141 62L142 63L141 62M167 63L168 64L167 63M143 64L144 65L143 64M165 65L166 66L165 65M145 66L146 67L145 66M146 67L147 68L146 67M162 67L163 68L162 67M149 68L150 69L149 68M160 68L161 69L160 68M159 69L160 70L159 69M111 79L112 80L111 79M122.667 79.3333L123.333 79.6667L122.667 79.3333M188.667 79.3333L189.333 79.6667L188.667 79.3333M199 79L200 80L199 79M108 80L109 81L108 80M126 80L126 81L129 81L126 80M183.667 80.3333L184.333 80.6667L183.667 80.3333M202.667 80.3333L203.333 80.6667L202.667 80.3333M131 81L132 82L131 81M180 81L181 82L180 81M105 82L106 83L105 82M135 82L136 83L135 82M176 82L177 83L176 82M206 82L207 83L206 82M137 83L138 84L137 83M173.667 83.3333L174.333 83.6667L173.667 83.3333M207 83L208 84L207 83M102 84L103 85L102 84M142 84L143 85L142 84M169 84L170 85L169 84M101 85L102 86L101 85M144 85L145 86L144 85M167 85L168 86L167 85M100 86L101 87L100 86M148 86L149 87L148 86M151 86L152 87L151 86M163 86L164 87L163 86M99 87L100 88L99 87M160 87L161 88L160 87M212 87L213 88L212 87M98 88L99 89L98 88M213 88L214 89L213 88M247 88L248 89L247 88M97 89L98 90L97 89M214 89L215 90L214 89M245 89L246 90L245 89M96 90L97 91L96 90M215 90L216 91L215 90M68 91L69 92L68 91M95 91L96 92L95 91M216 91L217 92L216 91M94 92L95 93L94 92M217 92L218 93L217 92M71 93L72 94L71 93M76 93L76 94L82 94L76 93M218 93L219 94L218 93M228 93L228 94L234 94L228 93M239 93L240 94L239 93M64 94L65 95L64 94M74 94L75 95L74 94M238 94L239 95L238 94M247 94L248 95L247 94M90 95L91 96L90 95M221 95L222 96L221 95M235.667 95.3333L236.333 95.6667L235.667 95.3333M83 96L84 97L83 96M89 96L90 97L89 96M222 96L223 97L222 96M226 96L227 97L226 96M246 96L247 97L246 96M65 97L66 98L65 97M85.6667 97.3333L86.3333 97.6667L85.6667 97.3333M114 97L115 98L114 97M119.667 97.3333L120.333 97.6667L119.667 97.3333M190.667 97.3333L191.333 97.6667L190.667 97.3333M197 97L198 98L197 97M112 98L113 99L112 98M123 98L124 99L123 98M188 98L189 99L188 98M199 98L200 99L199 98M201 99L202 100L201 99M245 99L246 100L245 99M108 100L109 101L108 100M127 100L128 101L127 100M184 100L185 101L184 100M203 100L204 101L203 100M244 100L245 101L244 100M129 101L130 102L129 101M204 101L205 102L204 101M105 102L106 103L105 102M131 102L132 103L131 102M180 102L181 103L180 102M206 102L207 103L206 102M69 103L70 104L69 103M103 103L104 104L103 103M178 103L179 104L178 103M101 104L102 105L101 104M135 104L136 105L135 104M176 104L177 105L176 104M210 104L211 105L210 104M72 105L73 106L72 105M100 105L101 106L100 105M136 105L137 106L136 105M211 105L212 106L211 105M97 106L98 107L97 106M139 106L140 107L139 106M172 106L173 107L172 106M214 106L215 107L214 106M237 106L238 107L237 106M74.3333 107.667L74.6667 108.333L74.3333 107.667M95 107L96 108L95 107M140 107L141 108L140 107M216 107L217 108L216 107M236 107L237 108L236 107M89 108L89 111L90 111L91 108L89 108M143 108L144 109L143 108M168 108L169 109L168 108M220 108L220 110L222 108L220 108M69 109L69 110L74 110L69 109M145 109L146 110L145 109M165.667 109.333L166.333 109.667L165.667 109.333M236 109L236 110L240 110L236 109M68 110L69 111L68 110M149 110L150 111L149 110M162 110L163 111L162 110M241 110L242 111L241 110M160 111L161 112L160 111M67 112L68 113L67 112M90 112L91 113L90 112M219 112L220 113L219 112M242.333 113.667L242.667 114.333L242.333 113.667M218.333 114.667L218.667 115.333L218.333 114.667M66 116L67 117L66 116M91 116L92 117L91 116M243 116L244 117L243 116M217 117L218 118L217 117M65 118L66 119L65 118M92.3333 118.667L92.6667 119.333L92.3333 118.667M152 118L152 147L153 147L152 118M244 120L245 121L244 120M216 121L217 122L216 121M64 122L65 123L64 122z"/>
<path style="fill:#dd5141; stroke:none;" d="M73 122L52 189L74 190L74 143L73 122z"/>
<path style="fill:#6a6a6a; stroke:none;" d="M84 122L83 125L84 125L84 122M93 122L94 123L93 122M224 123L224 124C227.648 124 226 135.648 226 139L226 189L227 189C227 168.691 231.745 141.435 226 122L224 123M235 122L237 124L237 122L235 122M245 122L246 123L245 122z"/>
<path style="fill:#dd5141; stroke:none;" d="M84 123C80.4613 137.864 83 155.744 83 171C83 175.452 81.265 184.717 84.179 188.397C87.3036 192.342 101.753 190.255 106 189C99.4299 168.808 95.6883 140.685 84 123z"/>
<path style="fill:#6a6a6a; stroke:none;" d="M215 123L216 124L215 123z"/>
<path style="fill:#dd5141; stroke:none;" d="M225 123L210.576 167L204 190L226 190L226 144L225 123M235 123L235 190L257 190L242.836 143L235 123z"/>
<path style="fill:#6a6a6a; stroke:none;" d="M63.3333 124.667L63.6667 125.333L63.3333 124.667M72.3333 124.667L72.6667 125.333L72.3333 124.667M74 124L74 190L75 190L75 145L74 124M85 125L86 126L85 125M94 125L95 126L94 125M237 126L238 127L237 126M246 126L247 127L246 126M71 127L72 128L71 127M214 127L215 128L214 127M223 127L224 128L223 127M62 128L63 129L62 128M95 128L96 129L95 128M238.333 128.667L238.667 129.333L238.333 128.667M247.333 128.667L247.667 129.333L247.333 128.667M213 129L214 130L213 129M222 129L223 130L222 129M61 131L62 132L61 131M70 131L71 132L70 131M87 131L88 132L87 131M96.3333 131.667L96.6667 132.333L96.3333 131.667M239 132L240 133L239 132M248 132L249 133L248 132M69 133L70 134L69 133M88 133L89 134L88 133M212 133L213 134L212 133M221 133L222 134L221 133M97 134L98 135L97 134M211.333 135.667L211.667 136.333L211.333 135.667M220.333 135.667L220.667 136.333L220.333 135.667M240 135L241 136L240 135M249 135L250 136L249 135M59.3333 137.667L59.6667 138.333L59.3333 137.667M68 137L69 138L68 137M89 137L90 138L89 137M98 138L99 139L98 138M241 138L242 139L241 138M250 138L251 139L250 138M67 139L68 140L67 139M90.3333 139.667L90.6667 140.333L90.3333 139.667M210 139L211 140L210 139M219 139L220 140L219 139M58 140L59 141L58 140M99 140L100 141L99 140M242.333 141.667L242.667 142.333L242.333 141.667M251.333 141.667L251.667 142.333L251.333 141.667M209 142L210 143L209 142M218 142L219 143L218 142M66 143L67 144L66 143M57 144L58 145L57 144M100 144L101 145L100 144M243 144L244 145L243 144M252 144L253 145L252 144M65.3333 145.667L65.6667 146.333L65.3333 145.667M208 145L209 146L208 145M217 145L218 146L217 145M56 146L57 147L56 146M92 146L93 147L92 146M101 146L102 147L101 146M207.333 148.667L207.667 149.333L207.333 148.667M216.333 148.667L216.667 149.333L216.333 148.667M244 148L245 149L244 148M253 148L254 149L253 148M64 149L65 150L64 149M102 150L103 151L102 150M245 150L246 151L245 150M254 150L255 151L254 150M206 151L207 152L206 151M215 151L216 152L215 151M54 152L55 153L54 152M63 152L64 153L63 152M94.3333 152.667L94.6667 153.333L94.3333 152.667M103.333 152.667L103.667 153.333L103.333 152.667M246 154L247 155L246 154M255 154L256 155L255 154M62 155L63 156L62 155M151 155L152 156L151 155M160 155L161 156L160 155M205 155L206 156L205 155M214 155L215 156L214 155M104 156L105 157L104 156M161 156L162 157L161 156M247.333 156.667L247.667 157.333L247.333 156.667M256.333 156.667L256.667 157.333L256.333 156.667M204 157L205 158L204 157M213 157L214 158L213 157M52.3333 158.667L52.6667 159.333L52.3333 158.667M61.3333 158.667L61.6667 159.333L61.3333 158.667M150 158L151 159L150 158M96 159L97 160L96 159M105.333 159.667L105.667 160.333L105.333 159.667M149 159L150 160L149 159M162 159L163 160L162 159M163 160L164 161L163 160M248 160L249 161L248 160M257 160L258 161L257 160M51 161L52 162L51 161M60 161L61 162L60 161M203 161L204 162L203 161M212 161L213 162L212 161M97 162L98 163L97 162M106 162L107 163L106 162M147 163L148 164L147 163M164 163L165 164L164 163M202 163L203 164L202 163M211 163L212 164L211 163M249 163L250 164L249 163M258 163L259 164L258 163M50 165L51 166L50 165M59 165L60 166L59 165M98.3333 165.667L98.6667 166.333L98.3333 165.667M107.333 165.667L107.667 166.333L107.333 165.667M165 165L166 166L165 165M250 166L251 167L250 166M259 166L260 167L259 166M49 167L50 168L49 167M58 167L59 168L58 167M166 167L167 168L166 167M201 167L202 168L201 167M210 167L211 168L210 167M99 168L100 169L99 168M108 168L109 169L108 168M145 168L146 169L145 168M167 169L168 170L167 169M200.333 169.667L200.667 170.333L200.333 169.667M209.333 169.667L209.667 170.333L209.333 169.667M251.333 169.667L251.667 170.333L251.333 169.667M260.333 169.667L260.667 170.333L260.333 169.667M48 171L49 172L48 171M57 171L58 172L57 171M168 171L169 172L168 171M100 172L101 173L100 172M109 172L110 173L109 172M143 172L143 199L144 199L143 172M252 172L253 173L252 172M261 172L262 173L261 172M47 173L48 174L47 173M56 173L57 174L56 173M199 173L200 174L199 173M101 174L102 175L101 174M110 174L111 175L110 174M198.333 175.667L198.667 176.333L198.333 175.667M207 176L208 177L207 176M253 176L254 177L253 176M262 176L263 177L262 176M46 177L47 178L46 177M55 177L56 178L55 177M102 178L103 179L102 178M111 178L112 179L111 178M254 178L255 179L254 178M263 178L264 179L263 178M45.3333 179.667L45.6667 180.333L45.3333 179.667M54.3333 179.667L54.6667 180.333L54.3333 179.667M197 179L198 180L197 179M103.333 180.667L103.667 181.333L103.333 180.667M112.333 180.667L112.667 181.333L112.333 180.667M196 182L197 183L196 182M205 182L206 183L205 182M255 182L256 183L255 182M264 182L265 183L264 182M44 183L45 184L44 183M53 183L54 184L53 183M104 184L105 185L104 184M113 184L114 185L113 184M204 184L205 185L204 184M256.333 184.667L256.667 185.333L256.333 184.667M265.333 184.667L265.667 185.333L265.333 184.667M43.3333 185.667L43.6667 186.333L43.3333 185.667M195 185L196 186L195 185M52 186L53 187L52 186M105 187L106 188L105 187M114 187L115 188L114 187M83.3333 188.667L83.6667 189.333L83.3333 188.667M194 188L195 189L194 188M203 188L204 189L203 188M266 188L267 189L266 188M42 189L43 190L42 189M52 189L53 190L52 189M105 189L106 190L105 189M127 190L127 191L129 193L130 193L127 190M178 190L178 193L179 193L178 190M27 193L28 194L27 193M280 193L281 194L280 193M28 194L29 195L28 194M279 194L280 195L279 194M180 195L181 196L180 195M278 195L279 196L278 195M181 196L182 197L181 196M125 197L126 198L125 197M182 197L183 198L182 197M124 198L125 199L124 198M183 198L184 199L183 198M184 199L185 200L184 199M185 200L186 201L185 200M273 200L274 201L273 200M35 201L36 202L35 201M143 201L144 202L143 201M272 201L273 202L272 201M36 202L37 203L36 202M119 202L120 203L119 202M271 202L272 203L271 202M189 203L190 204L189 203M39 204L40 205L39 204M116 204L117 205L116 204M191 204L192 205L191 204M268 204L269 205L268 204M266 205L267 206L266 205M42 206L43 207L42 206M113 206L114 207L113 206M194 206L195 207L194 206M264 206L265 207L264 206M44 207L45 208L44 207M111 207L112 208L111 207M196 207L197 208L196 207M47 208L48 209L47 208M108 208L109 209L108 208M199 208L200 209L199 208M260 208L261 209L260 208M49 209L50 210L49 209M106 209L107 210L106 209M258 209L259 210L258 209M52 210L53 211L52 210M102.667 210.333L103.333 210.667L102.667 210.333M204 210L205 211L204 210M254 210L255 211L254 210M55 211L56 212L55 211M100 211L101 212L100 211M206.667 211.333L207.333 211.667L206.667 211.333M252 211L253 212L252 211M60 212L61 213L60 212M95 212L96 213L95 212M212 212L213 213L212 212M246.667 212.333L247.333 212.667L246.667 212.333M64 213L64 214L67 214L64 213M89 213L89 214L92 214L89 213M216 213L216 214L220 214L216 213M240 213L240 214L244 214L240 213M143.333 222.667L143.667 223.333L143.333 222.667M169 223L170 224L169 223M120 224L121 225L120 224M190 234L191 235L190 234M118 236L119 237L118 236M191 236L192 237L191 236M192 237L193 238L192 237M117 238L118 239L117 238M116 239L117 240L116 239M194 240L195 241L194 240M115 241L116 242L115 241M195 241L196 242L195 241M114 243L115 244L114 243M197 244L198 245L197 244M198 245L199 246L198 245M112 246L113 247L112 246M200 248L201 249L200 248M109 251L110 252L109 251M202 251L203 252L202 251M203 252L204 253L203 252M108 253L109 254L108 253M107 254L108 255L107 254M18 255L18 256L107 256L80 255L18 255M206 255L206 256L346 256C335.02 251.393 315.944 255 304 255L206 255M5 293L6 293L6 290L29 290C23.659 287.759 7.10134 286.669 5 293M33 321L34 321L34 290L44 290C27.8141 283.208 33 311.949 33 321M69 289L69 290L73 291L73 290L69 289M88 321L89 321L89 290L100 290C82.6699 282.728 88 311.245 88 321M120 321L121 321L121 290L124 290L124 321L124.999 297L122.17 289.921L120.001 297L120 321M129 289L129 290C135.096 290 148.379 287.414 152 293C153.439 286.592 133.343 289 129 289M157 289L157 290L161 290L157 289M177.667 289.333L178.333 289.667L177.667 289.333z"/>
<path style="fill:#afafaf; stroke:none;" d="M179 289L179 290L186 290L179 289z"/>
<path style="fill:#6a6a6a; stroke:none;" d="M186 289L187 290L186 289M203 321L204 321L204 290L209 291C204.529 287.764 203.086 291.715 203.005 296.001C202.847 304.327 203 312.672 203 321M224 315L225 315C225 308.634 222.205 293.757 228 290C221.876 288.624 223.512 310.565 224 315M244 289L244 290L248 290L244 289M264 321L265 321L265 290L268 290L268 318L282 318L282 317L269 317L268.995 296.001L266.17 289.921L264.001 297L264 321M287 289L287 290L291 290L287 289M304.667 289.333L305.333 289.667L304.667 289.333z"/>
<path style="fill:#afafaf; stroke:none;" d="M306 289L306 290L311 290L306 289z"/>
<path style="fill:#6a6a6a; stroke:none;" d="M311.667 289.333L312.333 289.667L311.667 289.333M323 321L324 321L324 290L330 291C320.015 283.565 323 315.488 323 321M348 290L348 291L355 290L348 290z"/>
<path style="fill:#fbfbfb; stroke:none;" d="M6 290L6 293L16 293L16 321L19 321L19 293L29 293L29 290L6 290M34 290L34 321L37 321L37 308C47.4637 308.124 46.3585 318.442 55 321L47 307C52.6426 303.903 56.0735 295.363 48.9414 291.457C44.6368 289.099 38.7303 290 34 290z"/>
<path style="fill:#afafaf; stroke:none;" d="M47 290L48 291L47 290z"/>
<path style="fill:#6a6a6a; stroke:none;" d="M48 290L49 291L48 290z"/>
<path style="fill:#afafaf; stroke:none;" d="M68 290L69 291L68 290z"/>
<path style="fill:#fbfbfb; stroke:none;" d="M57 321C61.6562 319.405 61.2843 314.397 65.2245 312.028C75.4174 305.898 77.0825 318.822 84 321L72 290C64.1234 292.544 59.0819 313.388 57 321M89 290L89 321C94.7684 321 101.914 321.633 106.957 318.262C114.688 313.093 115.555 298.381 107.892 292.703C102.695 288.852 95.072 290 89 290z"/>
<path style="fill:#afafaf; stroke:none;" d="M103 290L104 291L103 290z"/>
<path style="fill:#6a6a6a; stroke:none;" d="M104 290L105 291L104 290z"/>
<path style="fill:#fbfbfb; stroke:none;" d="M121 290L121 321L124 321L124 290L121 290M129 290L129 293L139 293L139 321L142 321L142 293L152 293L152 290L129 290M157 290L157 321L160 321L160 290L157 290z"/>
<path style="fill:#afafaf; stroke:none;" d="M160 290L160 321L161 321L160 290M175 290L176 291L175 290z"/>
<path style="fill:#fbfbfb; stroke:none;" d="M176.004 290.742C159.466 297.149 169.54 327.566 187.996 319.991C204.583 313.182 194.664 283.513 176.004 290.742z"/>
<path style="fill:#afafaf; stroke:none;" d="M188 290L189 291L188 290z"/>
<path style="fill:#fbfbfb; stroke:none;" d="M204 290L204 321L207 321L206 295C213.325 301.762 217.423 319.29 228 321L228 290L225 290L225 316C220.154 308.817 213.002 291.464 204 290z"/>
<path style="fill:#afafaf; stroke:none;" d="M244 290L245 291L244 290z"/>
<path style="fill:#fbfbfb; stroke:none;" d="M233 321C237.319 319.498 238.273 315.219 239 311C248.533 311 253.222 310.85 256 321L260 321L248 290C239.817 292.576 234.86 313.15 233 321M265 290L265 321L282 321L282 318L268 318L268 290L265 290z"/>
<path style="fill:#afafaf; stroke:none;" d="M287 290L287 321L288 321L287 290z"/>
<path style="fill:#fbfbfb; stroke:none;" d="M288 290L288 321L291 321L291 290L288 290z"/>
<path style="fill:#afafaf; stroke:none;" d="M302 290L303 291L302 290z"/>
<path style="fill:#fbfbfb; stroke:none;" d="M298 317C300.679 324.619 314.949 321.335 316.522 313.996C318.386 305.299 307.484 305.374 303.558 300.606C300.083 296.387 304.579 292.259 308.999 292.431C311.448 292.526 313.531 293.166 316 293C311.814 287.075 297.949 289.391 298.533 297.997C299.063 305.805 308.617 305.058 312.083 310.39C315.558 315.736 307.796 318.383 303.835 317.99C301.874 317.796 299.934 317.364 298 317z"/>
<path style="fill:#afafaf; stroke:none;" d="M314 290L315 291L314 290z"/>
<path style="fill:#6a6a6a; stroke:none;" d="M315 290L316 291L315 290z"/>
<path style="fill:#fbfbfb; stroke:none;" d="M324 290L324 321L327 321L326 293L327 293L338 321L340 321L352 294L351 321L354 321L354 290C345.348 290.69 341.741 307.655 340 315L338 315C336.263 307.495 332.921 290.709 324 290z"/>
<path style="fill:#afafaf; stroke:none;" d="M354 290L354 321L355 321L354 290M49 291L50 292L49 291z"/>
<path style="fill:#6a6a6a; stroke:none;" d="M50 291L51 292L50 291z"/>
<path style="fill:#afafaf; stroke:none;" d="M72 291L73 292L72 291z"/>
<path style="fill:#6a6a6a; stroke:none;" d="M106 291L107 292L106 291M173 291L174 292L173 291M190 291L191 292L190 291M248 291L249 292L248 291M300 291L301 292L300 291M316 291L317 292L316 291z"/>
<path style="fill:#afafaf; stroke:none;" d="M329 291L330 292L329 291M348 291L349 292L348 291z"/>
<path style="fill:#6a6a6a; stroke:none;" d="M51 292L52 293L51 292M67 292L68 293L67 292z"/>
<path style="fill:#afafaf; stroke:none;" d="M172 292L173 293L172 292M179 292L179 293L182 293L179 292z"/>
<path style="fill:#6a6a6a; stroke:none;" d="M182 292L183 293L182 292z"/>
<path style="fill:#afafaf; stroke:none;" d="M183.667 292.333L184.333 292.667L183.667 292.333M191 292L192 293L191 292M209 292L210 293L209 292M243 292L244 293L243 292z"/>
<path style="fill:#6a6a6a; stroke:none;" d="M299 292L300 293L299 292z"/>
<path style="fill:#afafaf; stroke:none;" d="M305 292L305 293L311 293L305 292z"/>
<path style="fill:#6a6a6a; stroke:none;" d="M15 293L15 321L16 321L15 293M19 293L19 321L20 321L19 293M37 293L37 304L38 304L37 293z"/>
<path style="fill:#262424; stroke:none;" d="M38 293L38 305C51.2726 303.942 51.7844 293.116 38 293z"/>
<path style="fill:#6a6a6a; stroke:none;" d="M45 293L46 294L45 293z"/>
<path style="fill:#afafaf; stroke:none;" d="M46 293L47 294L46 293M67 293L68 294L67 293M73 293L74 294L73 293z"/>
<path style="fill:#6a6a6a; stroke:none;" d="M92 293L92 318L93 318L92 293z"/>
<path style="fill:#262424; stroke:none;" d="M93 293L93 318C97.1586 317.671 102.503 317.477 105.772 314.566C117.435 304.182 103.51 293.087 93 293z"/>
<path style="fill:#6a6a6a; stroke:none;" d="M100.667 293.333L101.333 293.667L100.667 293.333z"/>
<path style="fill:#afafaf; stroke:none;" d="M102 293L103 294L102 293z"/>
<path style="fill:#6a6a6a; stroke:none;" d="M109 293L110 294L109 293M138 293L138 321L139 321L138 293M142 293L142 321L143 321L142 293z"/>
<path style="fill:#afafaf; stroke:none;" d="M171 293L172 294L171 293z"/>
<path style="fill:#6a6a6a; stroke:none;" d="M177 293L178 294L177 293z"/>
<path style="fill:#262424; stroke:none;" d="M178.043 293.742C166.317 298.475 171.94 322.711 185.957 317.106C197.698 312.41 192.303 287.986 178.043 293.742z"/>
<path style="fill:#6a6a6a; stroke:none;" d="M186 293L187 294L186 293z"/>
<path style="fill:#afafaf; stroke:none;" d="M187 293L188 294L187 293M192 293L193 294L192 293z"/>
<path style="fill:#6a6a6a; stroke:none;" d="M210 293L211 294L210 293M249 293L250 294L249 293z"/>
<path style="fill:#afafaf; stroke:none;" d="M303 293L304 294L303 293z"/>
<path style="fill:#6a6a6a; stroke:none;" d="M312 293L313 294L312 293z"/>
<path style="fill:#afafaf; stroke:none;" d="M313 293L314 294L313 293M315 293L316 294L315 293M326 293L326 296L328 295L328 294L326 293M330 293L331 294L330 293z"/>
<path style="fill:#6a6a6a; stroke:none;" d="M347 293L348 294L347 293z"/>
<path style="fill:#afafaf; stroke:none;" d="M48 294L49 295L48 294z"/>
<path style="fill:#6a6a6a; stroke:none;" d="M70 294L71 295L70 294z"/>
<path style="fill:#afafaf; stroke:none;" d="M104 294L105 295L104 294z"/>
<path style="fill:#6a6a6a; stroke:none;" d="M110 294L111 295L110 294M170 294L171 295L170 294z"/>
<path style="fill:#afafaf; stroke:none;" d="M175 294L176 295L175 294z"/>
<path style="fill:#6a6a6a; stroke:none;" d="M188 294L189 295L188 294M193 294L194 295L193 294z"/>
<path style="fill:#afafaf; stroke:none;" d="M210 294L211 295L210 294z"/>
<path style="fill:#6a6a6a; stroke:none;" d="M242 294L243 295L242 294z"/>
<path style="fill:#afafaf; stroke:none;" d="M246 294L245 296L246 294M249 294L250 295L249 294M298.333 294.667L298.667 295.333L298.333 294.667M302 294L303 295L302 294M347 294L348 295L347 294M350.667 294.333L351.333 294.667L350.667 294.333z"/>
<path style="fill:#6a6a6a; stroke:none;" d="M66 295L67 296L66 295z"/>
<path style="fill:#afafaf; stroke:none;" d="M69.3333 295.667L69.6667 296.333L69.3333 295.667z"/>
<path style="fill:#262424; stroke:none;" d="M70 295L66 307L75 307L70 295z"/>
<path style="fill:#6a6a6a; stroke:none;" d="M74 295L75 296L74 295M105 295L106 296L105 295z"/>
<path style="fill:#afafaf; stroke:none;" d="M174 295L175 296L174 295z"/>
<path style="fill:#6a6a6a; stroke:none;" d="M189 295L190 296L189 295z"/>
<path style="fill:#afafaf; stroke:none;" d="M206 295L206 300L207 300L208 295L206 295z"/>
<path style="fill:#6a6a6a; stroke:none;" d="M211 295L212 296L211 295z"/>
<path style="fill:#afafaf; stroke:none;" d="M242 295L243 296L242 295z"/>
<path style="fill:#6a6a6a; stroke:none;" d="M246 295L245 297L246 295M327 295L328 296L327 295M331 295L332 296L331 295M350 295L351 296L350 295z"/>
<path style="fill:#afafaf; stroke:none;" d="M49 296L50 297L49 296z"/>
<path style="fill:#6a6a6a; stroke:none;" d="M53 296L54 297L53 296z"/>
<path style="fill:#afafaf; stroke:none;" d="M71 296L72 297L71 296M74 296L75 297L74 296M111 296L112 297L111 296M169 296L170 297L169 296M190 296L191 297L190 296M194 296L195 297L194 296z"/>
<path style="fill:#262424; stroke:none;" d="M246 296L242 307L250 307L246 296z"/>
<path style="fill:#6a6a6a; stroke:none;" d="M250 296L251 297L250 296z"/>
<path style="fill:#afafaf; stroke:none;" d="M301.333 296.667L301.667 297.333L301.333 296.667M331 296L332 297L331 296M346 296L347 297L346 296z"/>
<path style="fill:#6a6a6a; stroke:none;" d="M49 297L50 298L49 297z"/>
<path style="fill:#afafaf; stroke:none;" d="M53 297L53 300L54 300L53 297z"/>
<path style="fill:#6a6a6a; stroke:none;" d="M65 297L66 298L65 297M69 297L70 298L69 297M71 297L72 298L71 297M107 297L108 298L107 297M173 297L174 298L173 297M208 297L209 298L208 297z"/>
<path style="fill:#afafaf; stroke:none;" d="M212 297L213 298L212 297M241 297L242 298L241 297M247 297L248 298L247 297M328 297L329 298L328 297z"/>
<path style="fill:#6a6a6a; stroke:none;" d="M349 297L350 298L349 297z"/>
<path style="fill:#afafaf; stroke:none;" d="M65 298L66 299L65 298z"/>
<path style="fill:#6a6a6a; stroke:none;" d="M75 298L76 299L75 298z"/>
<path style="fill:#afafaf; stroke:none;" d="M112.333 298.667L112.667 299.333L112.333 298.667z"/>
<path style="fill:#6a6a6a; stroke:none;" d="M168 298L169 299L168 298z"/>
<path style="fill:#afafaf; stroke:none;" d="M191 298L192 299L191 298M195.333 298.667L195.667 299.333L195.333 298.667M209 298L210 299L209 298z"/>
<path style="fill:#6a6a6a; stroke:none;" d="M213 298L214 299L213 298z"/>
<path style="fill:#afafaf; stroke:none;" d="M244 298L245 299L244 298z"/>
<path style="fill:#6a6a6a; stroke:none;" d="M247 298L248 299L247 298M251 298L252 299L251 298M328 298L329 299L328 298M332 298L333 299L332 298M345 298L346 299L345 298M49.3333 299.667L49.6667 300.333L49.3333 299.667M68 299L69 300L68 299z"/>
<path style="fill:#afafaf; stroke:none;" d="M72 299L73 300L72 299z"/>
<path style="fill:#6a6a6a; stroke:none;" d="M108 299L109 300L108 299z"/>
<path style="fill:#afafaf; stroke:none;" d="M168 299L169 300L168 299z"/>
<path style="fill:#6a6a6a; stroke:none;" d="M172 299L173 300L172 299M240 299L241 300L240 299M244 299L245 300L244 299z"/>
<path style="fill:#afafaf; stroke:none;" d="M251 299L252 300L251 299M298 299L299 300L298 299M329 299L330 300L329 299M345 299L346 300L345 299M348 299L349 300L348 299z"/>
<path style="fill:#6a6a6a; stroke:none;" d="M53.3333 300.667L53.6667 301.333L53.3333 300.667M64 300L65 301L64 300M72 300L73 301L72 300M76 300L77 301L76 300z"/>
<path style="fill:#afafaf; stroke:none;" d="M210 300L211 301L210 300M214 300L215 301L214 300M240 300L241 301L240 300M248 300L249 301L248 300z"/>
<path style="fill:#6a6a6a; stroke:none;" d="M298 300L299 301L298 300z"/>
<path style="fill:#afafaf; stroke:none;" d="M302 300L303 301L302 300z"/>
<path style="fill:#6a6a6a; stroke:none;" d="M329 300L330 301L329 300M333 300L334 301L333 300M348 300L349 301L348 300z"/>
<path style="fill:#afafaf; stroke:none;" d="M49 301L50 302L49 301M67 301L68 302L67 301M76 301L77 302L76 301z"/>
<path style="fill:#6a6a6a; stroke:none;" d="M113 301L113 304L114 304L113 301M196 301L196 305L197 305L196 301M215 301L216 302L215 301M243 301L244 302L243 301M252 301L253 302L252 301z"/>
<path style="fill:#afafaf; stroke:none;" d="M303 301L304 302L303 301M333 301L334 302L333 301z"/>
<path style="fill:#6a6a6a; stroke:none;" d="M344 301L345 302L344 301M48 302L49 303L48 302z"/>
<path style="fill:#afafaf; stroke:none;" d="M52 302L53 303L52 302z"/>
<path style="fill:#6a6a6a; stroke:none;" d="M63 302L64 303L63 302M67 302L68 303L67 302z"/>
<path style="fill:#afafaf; stroke:none;" d="M73 302L74 303L73 302M109.333 302.667L109.667 303.333L109.333 302.667M192.333 302.667L192.667 303.333L192.333 302.667z"/>
<path style="fill:#6a6a6a; stroke:none;" d="M211 302L212 303L211 302M239 302L240 303L239 302z"/>
<path style="fill:#afafaf; stroke:none;" d="M249 302L250 303L249 302M252 302L253 303L252 302z"/>
<path style="fill:#6a6a6a; stroke:none;" d="M299 302L300 303L299 302z"/>
<path style="fill:#afafaf; stroke:none;" d="M305 302L306 303L305 302M330 302L331 303L330 302M347 302L348 303L347 302z"/>
<path style="fill:#6a6a6a; stroke:none;" d="M47 303L48 304L47 303M52 303L53 304L52 303z"/>
<path style="fill:#afafaf; stroke:none;" d="M63 303L64 304L63 303z"/>
<path style="fill:#6a6a6a; stroke:none;" d="M77 303L78 304L77 303M167 303L167 308L168 308L167 303z"/>
<path style="fill:#afafaf; stroke:none;" d="M171 303L171 308L172 308L171 303M212 303L213 304L212 303M216 303L217 304L216 303M242 303L243 304L242 303z"/>
<path style="fill:#6a6a6a; stroke:none;" d="M249 303L250 304L249 303M300 303L301 304L300 303z"/>
<path style="fill:#afafaf; stroke:none;" d="M307 303L308 304L307 303z"/>
<path style="fill:#6a6a6a; stroke:none;" d="M308 303L309 304L308 303M330 303L331 304L330 303M334 303L335 304L334 303M343 303L344 304L343 303z"/>
<path style="fill:#afafaf; stroke:none;" d="M37 304L38 305L37 304z"/>
<path style="fill:#6a6a6a; stroke:none;" d="M42 304L42 305L45 305L42 304z"/>
<path style="fill:#afafaf; stroke:none;" d="M45 304L46 305L45 304z"/>
<path style="fill:#6a6a6a; stroke:none;" d="M51 304L52 305L51 304z"/>
<path style="fill:#afafaf; stroke:none;" d="M66 304L67 305L66 304M74 304L75 305L74 304M77 304L78 305L77 304z"/>
<path style="fill:#6a6a6a; stroke:none;" d="M109 304L109 308L110 308L109 304z"/>
<path style="fill:#afafaf; stroke:none;" d="M113.333 304.667L113.667 305.333L113.333 304.667z"/>
<path style="fill:#6a6a6a; stroke:none;" d="M192.333 304.667L192.667 305.333L192.333 304.667M217 304L218 305L217 304M238 304L239 305L238 304M242 304L243 305L242 304z"/>
<path style="fill:#afafaf; stroke:none;" d="M253 304L254 305L253 304M302 304L303 305L302 304M310 304L311 305L310 304M334 304L335 305L334 304M343 304L344 305L343 304M346 304L347 305L346 304z"/>
<path style="fill:#6a6a6a; stroke:none;" d="M50 305L51 306L50 305M62 305L63 306L62 305M66 305L67 306L66 305M74 305L75 306L74 305M78 305L79 306L78 305z"/>
<path style="fill:#afafaf; stroke:none;" d="M196 305L197 306L196 305z"/>
<path style="fill:#6a6a6a; stroke:none;" d="M213 305L214 306L213 305z"/>
<path style="fill:#afafaf; stroke:none;" d="M238 305L239 306L238 305M250 305L251 306L250 305z"/>
<path style="fill:#6a6a6a; stroke:none;" d="M303 305L304 306L303 305z"/>
<path style="fill:#afafaf; stroke:none;" d="M304 305L305 306L304 305M312 305L313 306L312 305M331 305L332 306L331 305z"/>
<path style="fill:#6a6a6a; stroke:none;" d="M346 305L347 306L346 305M48 306L49 307L48 306z"/>
<path style="fill:#afafaf; stroke:none;" d="M62 306L63 307L62 306M65.3333 306.667L65.6667 307.333L65.3333 306.667M78 306L79 307L78 306z"/>
<path style="fill:#6a6a6a; stroke:none;" d="M113 306L113 309L114 309L113 306z"/>
<path style="fill:#afafaf; stroke:none;" d="M192 306L192 309L193 309L192 306z"/>
<path style="fill:#6a6a6a; stroke:none;" d="M196 306L196 309L197 309L196 306z"/>
<path style="fill:#afafaf; stroke:none;" d="M214 306L215 307L214 306M218 306L219 307L218 306M241 306L242 307L241 306z"/>
<path style="fill:#6a6a6a; stroke:none;" d="M250 306L241 307L241 308L250 306M254 306L255 307L254 306M305 306L306 307L305 306z"/>
<path style="fill:#afafaf; stroke:none;" d="M306 306L307 307L306 306z"/>
<path style="fill:#6a6a6a; stroke:none;" d="M314 306L315 307L314 306z"/>
<path style="fill:#afafaf; stroke:none;" d="M335 306L336 307L335 306z"/>
<path style="fill:#6a6a6a; stroke:none;" d="M342 306L343 307L342 306z"/>
<path style="fill:#afafaf; stroke:none;" d="M47 307L48 308L47 307z"/>
<path style="fill:#6a6a6a; stroke:none;" d="M61 307L62 308L61 307M66 307L66 308L75 308L66 307z"/>
<path style="fill:#afafaf; stroke:none;" d="M75 307L76 308L75 307z"/>
<path style="fill:#6a6a6a; stroke:none;" d="M219 307L220 308L219 307M237 307L238 308L237 307z"/>
<path style="fill:#afafaf; stroke:none;" d="M254 307L255 308L254 307z"/>
<path style="fill:#6a6a6a; stroke:none;" d="M308 307L309 308L308 307M315 307L316 308L315 307z"/>
<path style="fill:#afafaf; stroke:none;" d="M332 307L333 308L332 307M342 307L343 308L342 307M345 307L346 308L345 307z"/>
<path style="fill:#6a6a6a; stroke:none;" d="M37 308L37 321L38 321L37 308z"/>
<path style="fill:#afafaf; stroke:none;" d="M44 308L45 309L44 308z"/>
<path style="fill:#6a6a6a; stroke:none;" d="M48 308L49 309L48 308z"/>
<path style="fill:#afafaf; stroke:none;" d="M61 308L62 309L61 308z"/>
<path style="fill:#6a6a6a; stroke:none;" d="M79 308L80 309L79 308z"/>
<path style="fill:#afafaf; stroke:none;" d="M109 308L110 309L109 308z"/>
<path style="fill:#6a6a6a; stroke:none;" d="M215 308L216 309L215 308M310 308L311 309L310 308M332 308L333 309L332 308M336 308L337 309L336 308M345 308L346 309L345 308z"/>
<path style="fill:#afafaf; stroke:none;" d="M79 309L80 310L79 309M216 309L217 310L216 309M220 309L221 310L220 309z"/>
<path style="fill:#6a6a6a; stroke:none;" d="M236 309L237 310L236 309z"/>
<path style="fill:#afafaf; stroke:none;" d="M255 309L256 310L255 309M312 309L313 310L312 309M316 309L317 310L316 309M336 309L337 310L336 309M341 309L342 310L341 309M344 309L345 310L344 309M45 310L46 311L45 310M49 310L50 311L49 310z"/>
<path style="fill:#6a6a6a; stroke:none;" d="M60 310L61 311L60 310z"/>
<path style="fill:#afafaf; stroke:none;" d="M168.333 310.667L168.667 311.333L168.333 310.667z"/>
<path style="fill:#6a6a6a; stroke:none;" d="M221 310L222 311L221 310z"/>
<path style="fill:#afafaf; stroke:none;" d="M236 310L237 311L236 310M333 310L334 311L333 310z"/>
<path style="fill:#6a6a6a; stroke:none;" d="M344 310L345 311L344 310z"/>
<path style="fill:#afafaf; stroke:none;" d="M60 311L61 312L60 311z"/>
<path style="fill:#6a6a6a; stroke:none;" d="M76 311L77 312L76 311z"/>
<path style="fill:#afafaf; stroke:none;" d="M80 311L81 312L80 311M108 311L109 312L108 311M112 311L113 312L112 311M172 311L173 312L172 311z"/>
<path style="fill:#6a6a6a; stroke:none;" d="M191 311L192 312L191 311z"/>
<path style="fill:#afafaf; stroke:none;" d="M195 311L196 312L195 311z"/>
<path style="fill:#6a6a6a; stroke:none;" d="M217 311L218 312L217 311z"/>
<path style="fill:#afafaf; stroke:none;" d="M239 311L240 312L239 311M252 311L253 312L252 311z"/>
<path style="fill:#6a6a6a; stroke:none;" d="M256 311L257 312L256 311M333 311L334 312L333 311M337 311L338 312L337 311M340 311L341 312L340 311M46 312L47 313L46 312z"/>
<path style="fill:#afafaf; stroke:none;" d="M50 312L51 313L50 312z"/>
<path style="fill:#6a6a6a; stroke:none;" d="M63 312L64 313L63 312M112 312L113 313L112 312M168 312L169 313L168 312z"/>
<path style="fill:#afafaf; stroke:none;" d="M191 312L192 313L191 312z"/>
<path style="fill:#6a6a6a; stroke:none;" d="M195 312L196 313L195 312z"/>
<path style="fill:#afafaf; stroke:none;" d="M218 312L219 313L218 312M222 312L223 313L222 312z"/>
<path style="fill:#6a6a6a; stroke:none;" d="M235 312L236 313L235 312M239 312L240 313L239 312z"/>
<path style="fill:#afafaf; stroke:none;" d="M256 312L257 313L256 312M313 312L313 315L314 315L313 312z"/>
<path style="fill:#6a6a6a; stroke:none;" d="M317 312L318 313L317 312z"/>
<path style="fill:#afafaf; stroke:none;" d="M337 312L338 313L337 312M340 312L341 313L340 312M343 312L344 313L343 312M47 313L48 314L47 313z"/>
<path style="fill:#6a6a6a; stroke:none;" d="M51 313L52 314L51 313z"/>
<path style="fill:#afafaf; stroke:none;" d="M59 313L60 314L59 313z"/>
<path style="fill:#6a6a6a; stroke:none;" d="M77 313L78 314L77 313M81 313L82 314L81 313z"/>
<path style="fill:#afafaf; stroke:none;" d="M107 313L108 314L107 313M111 313L112 314L111 313M169 313L170 314L169 313M173 313L174 314L173 313z"/>
<path style="fill:#6a6a6a; stroke:none;" d="M190 313L191 314L190 313z"/>
<path style="fill:#afafaf; stroke:none;" d="M235 313L236 314L235 313M253 313L254 314L253 313z"/>
<path style="fill:#6a6a6a; stroke:none;" d="M334 313L335 314L334 313M338 313L340 315L338 313M343 313L344 314L343 313M47 314L48 315L47 314z"/>
<path style="fill:#afafaf; stroke:none;" d="M62 314L63 315L62 314M81 314L82 315L81 314M106 314L107 315L106 314z"/>
<path style="fill:#6a6a6a; stroke:none;" d="M111 314L112 315L111 314M169 314L170 315L169 314z"/>
<path style="fill:#afafaf; stroke:none;" d="M190 314L191 315L190 314z"/>
<path style="fill:#6a6a6a; stroke:none;" d="M194 314L195 315L194 314M219 314L220 315L219 314M234 314L235 315L234 314M238 314L239 315L238 314M253 314L254 315L253 314M257 314L258 315L257 314z"/>
<path style="fill:#afafaf; stroke:none;" d="M338 314L339 315L338 314M48 315L49 316L48 315M52 315L53 316L52 315z"/>
<path style="fill:#6a6a6a; stroke:none;" d="M58 315L59 316L58 315M62 315L63 316L62 315z"/>
<path style="fill:#afafaf; stroke:none;" d="M78 315L79 316L78 315M105 315L106 316L105 315M110 315L111 316L110 315M170 315L171 316L170 315M174 315L175 316L174 315M189 315L190 316L189 315M220 315L221 316L220 315M224 315L225 316L224 315M234 315L235 316L234 315z"/>
<path style="fill:#6a6a6a; stroke:none;" d="M312 315L313 316L312 315z"/>
<path style="fill:#afafaf; stroke:none;" d="M316 315L317 316L316 315M335 315L336 316L335 315M342 315L343 316L342 315z"/>
<path style="fill:#6a6a6a; stroke:none;" d="M53 316L54 317L53 316z"/>
<path style="fill:#afafaf; stroke:none;" d="M58 316L59 317L58 316z"/>
<path style="fill:#6a6a6a; stroke:none;" d="M78 316L79 317L78 316z"/>
<path style="fill:#afafaf; stroke:none;" d="M82 316L83 317L82 316z"/>
<path style="fill:#6a6a6a; stroke:none;" d="M103 316L104 317L103 316z"/>
<path style="fill:#afafaf; stroke:none;" d="M109 316L110 317L109 316z"/>
<path style="fill:#6a6a6a; stroke:none;" d="M176 316L177 317L176 316z"/>
<path style="fill:#afafaf; stroke:none;" d="M188 316L189 317L188 316M237 316L238 317L237 316M254 316L255 317L254 316z"/>
<path style="fill:#6a6a6a; stroke:none;" d="M258 316L259 317L258 316M297.667 316.333L298.333 316.667L297.667 316.333M316 316L317 317L316 316M335 316L336 317L335 316M49 317L50 318L49 317z"/>
<path style="fill:#afafaf; stroke:none;" d="M53 317L54 318L53 317M61 317L62 318L61 317z"/>
<path style="fill:#6a6a6a; stroke:none;" d="M97 317L97 318L100 318L97 317z"/>
<path style="fill:#afafaf; stroke:none;" d="M100.667 317.333L101.333 317.667L100.667 317.333M108 317L109 318L108 317z"/>
<path style="fill:#6a6a6a; stroke:none;" d="M171 317L172 318L171 317z"/>
<path style="fill:#afafaf; stroke:none;" d="M177 317L178 318L177 317z"/>
<path style="fill:#6a6a6a; stroke:none;" d="M178 317L179 318L178 317M185 317L186 318L185 317z"/>
<path style="fill:#afafaf; stroke:none;" d="M186 317L187 318L186 317z"/>
<path style="fill:#6a6a6a; stroke:none;" d="M192 317L193 318L192 317M221 317L222 318L221 317M233 317L234 318L233 317M237 317L238 318L237 317z"/>
<path style="fill:#afafaf; stroke:none;" d="M258 317L259 318L258 317M297 317L297 320L298 320L297 317M300 317L301 318L300 317z"/>
<path style="fill:#6a6a6a; stroke:none;" d="M301 317L302 318L301 317M309 317L310 318L309 317z"/>
<path style="fill:#afafaf; stroke:none;" d="M310 317L311 318L310 317M315 317L316 318L315 317M341 317L342 318L341 317z"/>
<path style="fill:#6a6a6a; stroke:none;" d="M54 318L55 319L54 318z"/>
<path style="fill:#afafaf; stroke:none;" d="M57 318L58 319L57 318M79 318L80 319L79 318z"/>
<path style="fill:#6a6a6a; stroke:none;" d="M83 318L84 319L83 318M107 318L108 319L107 318M172 318L173 319L172 318z"/>
<path style="fill:#afafaf; stroke:none;" d="M182 318L183 319L182 318z"/>
<path style="fill:#6a6a6a; stroke:none;" d="M191 318L192 319L191 318z"/>
<path style="fill:#afafaf; stroke:none;" d="M222 318L223 319L222 318M233 318L234 319L233 318M255 318L256 319L255 318M306 318L307 319L306 318M314 318L315 319L314 318M336 318L337 319L336 318z"/>
<path style="fill:#6a6a6a; stroke:none;" d="M341 318L342 319L341 318M50 319L51 320L50 319z"/>
<path style="fill:#afafaf; stroke:none;" d="M60 319L61 320L60 319M83 319L84 320L83 319z"/>
<path style="fill:#6a6a6a; stroke:none;" d="M105 319L106 320L105 319z"/>
<path style="fill:#afafaf; stroke:none;" d="M174 319L175 320L174 319M189 319L190 320L189 319M236 319L237 320L236 319z"/>
<path style="fill:#6a6a6a; stroke:none;" d="M255 319L256 320L255 319M259 319L260 320L259 319M313 319L314 320L313 319z"/>
<path style="fill:#afafaf; stroke:none;" d="M51 320L52 321L51 320M55 320L56 321L55 320z"/>
<path style="fill:#6a6a6a; stroke:none;" d="M56 320L57 321L56 320M60 320L61 321L60 320z"/>
<path style="fill:#afafaf; stroke:none;" d="M80 320L81 321L80 320M100.667 320.333L101.333 320.667L100.667 320.333z"/>
<path style="fill:#6a6a6a; stroke:none;" d="M102 320L103 321L102 320z"/>
<path style="fill:#afafaf; stroke:none;" d="M176.667 320.333L177.333 320.667L176.667 320.333M187 320L188 321L187 320z"/>
<path style="fill:#6a6a6a; stroke:none;" d="M223 320L224 321L223 320z"/>
<path style="fill:#afafaf; stroke:none;" d="M232 320L233 321L232 320z"/>
<path style="fill:#6a6a6a; stroke:none;" d="M298 320L299 321L298 320z"/>
<path style="fill:#afafaf; stroke:none;" d="M299 320L300 321L299 320z"/>
<path style="fill:#6a6a6a; stroke:none;" d="M311 320L312 321L311 320z"/>
<path style="fill:#afafaf; stroke:none;" d="M337 320L338 321L337 320M340 320L341 321L340 320z"/>
<path style="fill:#6a6a6a; stroke:none;" d="M179 321L179 322L185 322L179 321M303 321L303 322L308 322L303 321M0 342L1 347L2 347L0 342z"/>
<path style="fill:#afafaf; stroke:none;" d="M0.333333 344.667L0.666667 345.333L0.333333 344.667z"/>
<path style="fill:#6a6a6a; stroke:none;" d="M362 344L358 354C361.094 351.339 363.426 348.124 362 344z"/>
<path style="fill:#fbfbfb; stroke:none;" d="M0 346L0 354L4 354L0 346z"/>
<path style="fill:#afafaf; stroke:none;" d="M1 347L2 351L3 351L1 347z"/>
<path style="fill:#6a6a6a; stroke:none;" d="M2 348L3 349L2 348z"/>
<path style="fill:#afafaf; stroke:none;" d="M362 348L361 351L362 348z"/>
<path style="fill:#6a6a6a; stroke:none;" d="M3 349L6 354L3 349z"/>
<path style="fill:#fbfbfb; stroke:none;" d="M362 350L360 354C362.649 353.432 363.355 352.412 362 350z"/>
<path style="fill:#afafaf; stroke:none;" d="M3 352L4 353L3 352M360 352L361 353L360 352M4 353L5 354L4 353M359 353L360 354L359 353z"/>
</svg>
