<?xml version="1.0" standalone="yes"?>
<svg xmlns="http://www.w3.org/2000/svg" width="286" height="282">
<path style="fill:#f7f7f7; stroke:none;" d="M0 0L0 282L12 282L12 281C-3.67756 269.426 3 236.4 3 219L3 59C3 40.4324 -3.09365 13.049 14 1L0 0z"/>
<path style="fill:#acacad; stroke:none;" d="M14 0L4 12L5 12L15 1L14 0z"/>
<path style="fill:#747474; stroke:none;" d="M14 2L17 1L14 2z"/>
<path style="fill:#242527; stroke:none;" d="M17 0.652771C-4.221 7.30609 3 45.3098 3 62L3 216C3 232.596 -2.66058 261.978 7.64892 275.96C12.8068 282.955 20.2606 282 28 282L72 282L214 282L257 282C263.113 282 271.146 283.36 276.996 281.436C285.101 278.771 286 271.258 286 264L286 220L286 64L286 24C286 18.55 287.244 11.5912 283.682 7.01852C278.118 -0.124237 270.187 0 262 0L220 0L80 0L38 0C31.4787 0 23.273 -1.314 17 0.652771z"/>
<path style="fill:#747474; stroke:none;" d="M274 0L274 1L278 2L278 1L274 0z"/>
<path style="fill:#acacad; stroke:none;" d="M276 0L276 1L279 2L276 0z"/>
<path style="fill:#f7f7f7; stroke:none;" d="M278 0L278 1L286 7L286 0L278 0z"/>
<path style="fill:#747474; stroke:none;" d="M12 2L13 3L12 2M279 2L286 9L279 2z"/>
<path style="fill:#acacad; stroke:none;" d="M280 2L281 3L280 2z"/>
<path style="fill:#747474; stroke:none;" d="M11 3L12 4L11 3z"/>
<path style="fill:#acacad; stroke:none;" d="M281 3L282 4L281 3z"/>
<path style="fill:#747474; stroke:none;" d="M10 4L11 5L10 4z"/>
<path style="fill:#acacad; stroke:none;" d="M282 4L283 5L282 4z"/>
<path style="fill:#747474; stroke:none;" d="M9 5L10 6L9 5z"/>
<path style="fill:#acacad; stroke:none;" d="M283 5L284 6L283 5z"/>
<path style="fill:#747474; stroke:none;" d="M8 6L9 7L8 6z"/>
<path style="fill:#acacad; stroke:none;" d="M284 6L285 7L284 6z"/>
<path style="fill:#747474; stroke:none;" d="M7 7L8 8L7 7z"/>
<path style="fill:#acacad; stroke:none;" d="M285 7L286 8L285 7z"/>
<path style="fill:#747474; stroke:none;" d="M6 8L7 9L6 8M5.33333 10.6667L5.66667 11.3333L5.33333 10.6667M4.33333 12.6667L4.66667 13.3333L4.33333 12.6667z"/>
<path style="fill:#acacad; stroke:none;" d="M3.33333 13.6667L3.66667 14.3333L3.33333 13.6667z"/>
<path style="fill:#747474; stroke:none;" d="M27.6667 13.3333L28.3333 13.6667L27.6667 13.3333z"/>
<path style="fill:#48a6ea; stroke:none;" d="M62 199C58.2135 191.175 50.2858 185.479 45.615 178C32.1052 156.369 26.2026 130.245 31.6682 105C48.022 29.4624 143.028 0.274658 197.961 55C206.599 63.6059 213.702 73.7984 218.576 85C223.379 96.0404 226.689 107.894 226.985 120C227.507 141.277 222.107 161.066 210.561 179C206.019 186.055 198.509 191.476 195 199L274 199L274 68L274 35C274 29.7124 274.844 23.55 271.486 19.044C262.572 7.08261 230.405 13 217 13L71 13C58.0805 13 29.2264 7.54288 20.51 19.044C13.4529 28.3557 17 46.9541 17 58L17 157L17 186C17 189.122 15.9543 194.779 18.0278 197.397C20.261 200.216 26.8492 199 30 199L62 199z"/>
<path style="fill:#747474; stroke:none;" d="M263.667 13.3333L264.333 13.6667L263.667 13.3333M24.6667 14.3333L25.3333 14.6667L24.6667 14.3333M266 14L267 15L266 14M3.33333 15.6667L3.66667 16.3333L3.33333 15.6667M23 15L24 16L23 15M268 15L269 16L268 15M22 16L23 17L22 16M269 16L270 17L269 16M21 17L22 18L21 17M270 17L271 18L270 17M20 18L21 19L20 18M271 18L272 19L271 18M19 19L20 20L19 19M18.3333 21.6667L18.6667 22.3333L18.3333 21.6667M273.333 21.6667L273.667 22.3333L273.333 21.6667M17 23L17 26L18 26L17 23M274 24L274 199L275 199L275 76L275 41L274 24M118 26L118 27L125 27L118 26M132 26L132 27L139 27L132 26M110 27L110 28L114 28L110 27M143 27L143 28L147 28L143 27M106 28L106 29L109 29L106 28M147 28L147 29L151 29L147 28M102.667 29.3333L103.333 29.6667L102.667 29.3333M153 29L154 30L153 29M98.6667 30.3333L99.3333 30.6667L98.6667 30.3333M157.667 30.3333L158.333 30.6667L157.667 30.3333M95 31L95 32L98 32L95 31M159 31L159 32L162 32L159 31M93.6667 32.3333L94.3333 32.6667L93.6667 32.3333M162.667 32.3333L163.333 32.6667L162.667 32.3333M90.6667 33.3333L91.3333 33.6667L90.6667 33.3333M165.667 33.3333L166.333 33.6667L165.667 33.3333M88.6667 34.3333L89.3333 34.6667L88.6667 34.3333M167.667 34.3333L168.333 34.6667L167.667 34.3333M86.6667 35.3333L87.3333 35.6667L86.6667 35.3333M169.667 35.3333L170.333 35.6667L169.667 35.3333M84 36L85 37L84 36M172 36L173 37L172 36M82 37L83 38L82 37M174 37L175 38L174 37M80.6667 38.3333L81.3333 38.6667L80.6667 38.3333M175.667 38.3333L176.333 38.6667L175.667 38.3333M78 39L79 40L78 39M177 39L178 40L177 39M77 40L78 41L77 40M179 40L180 41L179 40M75 41L76 42L75 41M180.667 41.3333L181.333 41.6667L180.667 41.3333M74 42L75 43L74 42M103.333 42.6667L103.667 43.3333L103.333 42.6667M152.667 42.3333L153.333 42.6667L152.667 42.3333M182 42L183 43L182 42M72 43L73 44L72 43M99.6667 43.3333L100.333 43.6667L99.6667 43.3333z"/>
<path style="fill:#48a6ea; stroke:none;" d="M66 67L83 75L103 43C90.3705 45.9218 71.733 54.7401 66 67z"/>
<path style="fill:#747474; stroke:none;" d="M113 51L122 44L122 84L123 84L123 43L113 51M134 43L134 74C134 79.0442 133.041 84.0055 139 85L139 84L135 84C135 72.3043 138.511 53.7499 134 43z"/>
<path style="fill:#48a6ea; stroke:none;" d="M135 43L135 84L161 80C157.689 66.8645 145.96 50.7415 135 43z"/>
<path style="fill:#747474; stroke:none;" d="M136 43L137 44L136 43z"/>
<path style="fill:#48a6ea; stroke:none;" d="M153 43L173 75C176.955 73.9095 188.413 70.6397 189.079 65.8156C189.58 62.1842 184.387 59.0867 182 57.2114C173.677 50.6713 163.551 44.8155 153 43z"/>
<path style="fill:#747474; stroke:none;" d="M156.667 43.3333L157.333 43.6667L156.667 43.3333M184 43L185 44L184 43M70.6667 44.3333L71.3333 44.6667L70.6667 44.3333M96.6667 44.3333L97.3333 44.6667L96.6667 44.3333z"/>
<path style="fill:#48a6ea; stroke:none;" d="M96 80L122 84L122 44C110.958 49.1527 98.2778 68.0573 96 80z"/>
<path style="fill:#747474; stroke:none;" d="M137 44L138 45L137 44M153 44L154 45L153 44M158 44L158 45L161 45L158 44M185 44L186 45L185 44M69 45L70 46L69 45M94 45L95 46L94 45M102 45L103 46L102 45M138 45L139 46L138 45M154 45L155 46L154 45M161 45L162 46L161 45M186.667 45.3333L187.333 45.6667L186.667 45.3333M68 46L69 47L68 46M91 46L92 47L91 46M101 46L102 47L101 46M139 46L140 47L139 46M155 46L156 47L155 46M164 46L165 47L164 46M188 46L189 47L188 46M67 47L68 48L67 47M89.6667 47.3333L90.3333 47.6667L89.6667 47.3333M100 47L101 48L100 47M140 47L141 48L140 47M156 47L157 48L156 47M166 47L167 48L166 47M189 47L190 48L189 47M65 48L66 49L65 48M87.6667 48.3333L88.3333 48.6667L87.6667 48.3333M99 48L100 49L99 48M141 48L142 49L141 48M157.333 48.6667L157.667 49.3333L157.333 48.6667M168 48L169 49L168 48M190 48L191 49L190 48M64 49L65 50L64 49M86 49L87 50L86 49M98.3333 49.6667L98.6667 50.3333L98.3333 49.6667M170 49L171 50L170 49M63 50L64 51L63 50M84 50L85 51L84 50M158 50L159 51L158 50M172 50L173 51L172 50M193 50L194 51L193 50M62 51L63 52L62 51M82.6667 51.3333L83.3333 51.6667L82.6667 51.3333M97 51L98 52L97 51M143 51L144 52L143 51M159 51L160 52L159 51M173 51L174 52L173 51M194 51L195 52L194 51M61 52L62 53L61 52M81 52L82 53L81 52M96 52L97 53L96 52M112 52L113 53L112 52M144 52L145 53L144 52M160.333 52.6667L160.667 53.3333L160.333 52.6667M175 52L176 53L175 52M195 52L196 53L195 52M60 53L61 54L60 53M79 53L80 54L79 53M111 53L112 54L111 53M145 53L146 54L145 53M177 53L178 54L177 53M196 53L197 54L196 53M59 54L60 55L59 54M78 54L79 55L78 54M95 54L96 55L95 54M110 54L111 55L110 54M146 54L147 55L146 54M161 54L162 55L161 54M178 54L179 55L178 54M197 54L198 55L197 54M58 55L59 56L58 55M94 55L95 56L94 55M109 55L110 56L109 55M147.333 55.6667L147.667 56.3333L147.333 55.6667M162 55L163 56L162 55M179 55L180 56L179 55M198 55L199 56L198 55M57 56L58 57L57 56M75 56L76 57L75 56M93 56L94 57L93 56M181 56L182 57L181 56M199 56L200 57L199 56M56 57L57 58L56 57M74 57L75 58L74 57M108 57L109 58L108 57M148 57L149 58L148 57M163 57L164 58L163 57M182 57L183 58L182 57M200 57L201 58L200 57M55 58L56 59L55 58M73 58L74 59L73 58M92 58L93 59L92 58M107 58L108 59L107 58M149 58L150 59L149 58M164 58L165 59L164 58M183 58L184 59L183 58M201 58L202 59L201 58M54 59L55 60L54 59M91.3333 59.6667L91.6667 60.3333L91.3333 59.6667M106 59L107 60L106 59M184 59L185 60L184 59M53 60L54 61L53 60M70 60L71 61L70 60M150 60L151 61L150 60M165 60L166 61L165 60M203 60L204 61L203 60M52 61L53 62L52 61M69 61L70 62L69 61M90 61L91 62L90 61M105 61L106 62L105 61M151 61L152 62L151 61M187 61L188 62L187 61M204.333 61.6667L204.667 62.3333L204.333 61.6667M68 62L69 63L68 62M104 62L105 63L104 62M152 62L153 63L152 62M166 62L167 63L166 62M188 62L189 63L188 62M51 63L52 64L51 63M67 63L68 64L67 63M89 63L90 64L89 63M167.333 63.6667L167.667 64.3333L167.333 63.6667M189 63L190 64L189 63M205 63L206 64L205 63M50 64L51 65L50 64M66 64L67 65L66 64M103 64L104 65L103 64M153 64L154 65L153 64M190 64L190 67L191 67L190 64M206 64L207 65L206 64M49 65L50 66L49 65M88 65L89 66L88 65M102 65L103 66L102 65M154.333 65.6667L154.667 66.3333L154.333 65.6667M168 65L169 66L168 65M207.333 65.6667L207.667 66.3333L207.333 65.6667M48.3333 66.6667L48.6667 67.3333L48.3333 66.6667M87.3333 66.6667L87.6667 67.3333L87.3333 66.6667M67 67L68 68L67 67M101 67L102 68L101 67M155 67L156 68L155 67M169 67L170 68L169 67M189 67L190 68L189 67M208 67L209 68L208 67M47 68L48 69L47 68M69 68L70 69L69 68M100.333 68.6667L100.667 69.3333L100.333 68.6667M187 68L188 69L187 68M209 68L210 69L209 68M86 69L87 70L86 69M156 69L157 70L156 69M170 69L171 70L170 69M72.6667 70.3333L73.3333 70.6667L72.6667 70.3333M99 70L100 71L99 70M183.667 70.3333L184.333 70.6667L183.667 70.3333M210 70L211 71L210 70M45 71L46 72L45 71M74.6667 71.3333L75.3333 71.6667L74.6667 71.3333M85 71L86 72L85 71M157 71L158 72L157 71M171 71L172 72L171 71M181.667 71.3333L182.333 71.6667L181.667 71.3333M211 71L212 72L211 71M44.3333 72.6667L44.6667 73.3333L44.3333 72.6667M76 72L77 73L76 72M84.3333 72.6667L84.6667 73.3333L84.3333 72.6667M98.3333 72.6667L98.6667 73.3333L98.3333 72.6667M158.333 72.6667L158.667 73.3333L158.333 72.6667M180 72L181 73L180 72M78.6667 73.3333L79.3333 73.6667L78.6667 73.3333M172 73L173 74L172 73M177 73L178 74L177 73M212 73L213 74L212 73M43 74L44 75L43 74M80.6667 74.3333L81.3333 74.6667L80.6667 74.3333M83 74L84 75L83 74M97 74L98 75L97 74M159 74L160 75L159 74M175.667 74.3333L176.333 74.6667L175.667 74.3333M173 75L174 76L173 75M213 75L214 76L213 75M42 76L43 77L42 76z"/>
<path style="fill:#48a6ea; stroke:none;" d="M57 76C49.8825 88.9774 43.1253 102.866 43 118L73 118L76.9329 87.4151L57 76z"/>
<path style="fill:#747474; stroke:none;" d="M58 76L59 77L58 76M96 76L97 77L96 76M160.333 76.6667L160.667 77.3333L160.333 76.6667M194 78L194 79L201 78L194 78M214 76L215 77L214 76M41.3333 77.6667L41.6667 78.3333L41.3333 77.6667M56 77L57 78L56 77M60 77L61 78L60 77z"/>
<path style="fill:#48a6ea; stroke:none;" d="M179 86L184 118L214 118L205.691 87L198.815 77.8673L179 86z"/>
<path style="fill:#747474; stroke:none;" d="M55 78L56 79L55 78M61.6667 78.3333L62.3333 78.6667L61.6667 78.3333M95.3333 78.6667L95.6667 79.3333L95.3333 78.6667M161.333 78.6667L161.667 79.3333L161.333 78.6667M215 78L216 79L215 78M40.3333 79.6667L40.6667 80.3333L40.3333 79.6667M63 79L64 80L63 79M201 79L202 80L201 79M54 80L55 81L54 80M65 80L66 81L65 80M97 80L97 81L100 81L97 80M157 80L157 81L160 81L157 80M191 80L192 81L191 80M202 80L203 81L202 80M216 80L217 81L216 80M67 81L68 82L67 81M100 81L100 82L104 82L100 81M153 81L153 82L157 82L153 81M189 81L190 82L189 81M39 82L40 83L39 82M69 82L70 83L69 82M105 82L105 83L108 83L105 82M149 82L149 83L152 83L149 82M187 82L188 83L187 82M203 82L204 83L203 82M217 82L218 83L217 82M38.3333 83.6667L38.6667 84.3333L38.3333 83.6667M52.3333 83.6667L52.6667 84.3333L52.3333 83.6667M71 83L72 84L71 83M112 83L112 84L116 84L112 83M141 83L141 84L145 84L141 83M185 83L186 84L185 83M72.6667 84.3333L73.3333 84.6667L72.6667 84.3333M118 84L118 85L121 85L118 84M183.667 84.3333L184.333 84.6667L183.667 84.3333M204 84L205 85L204 84M218 84L219 85L218 84M51.3333 85.6667L51.6667 86.3333L51.3333 85.6667M75 85L76 86L75 85M181 85L182 86L181 85M37 86L38 87L37 86M77 86L78 87L77 86M205 86L206 87L205 86M50 87L51 88L50 87M78 87L78 91L79 91L78 87M178 87L178 90L179 90L178 87M219 87L220 88L219 87M206 88L207 89L206 88M36 89L37 90L36 89M220.333 89.6667L220.667 90.3333L220.333 89.6667M49 90L50 91L49 90M159 91L159 92L165 91L159 91z"/>
<path style="fill:#48a6ea; stroke:none;" d="M167 90C160.045 91.5907 153.075 93.6799 146 94.6998C142.519 95.2017 137.438 94.3856 134.603 96.9383C131.48 99.7512 131.676 115.469 134.603 118.397C139.216 123.009 156.75 120.013 163 120C165.691 119.994 169.967 120.625 171.396 117.682C174.711 110.855 168.822 96.8162 167 90z"/>
<path style="fill:#747474; stroke:none;" d="M207.333 90.6667L207.667 91.3333L207.333 90.6667M35.3333 91.6667L35.6667 92.3333L35.3333 91.6667M48 91L48 94L49 94L48 91M77.3333 91.6667L77.6667 92.3333L77.3333 91.6667M90 93L93 92L90 93M167.333 91.6667L167.667 92.3333L167.333 91.6667M221.333 91.6667L221.667 92.3333L221.333 91.6667z"/>
<path style="fill:#48a6ea; stroke:none;" d="M86 118L122 118C122 113 123.968 102.706 120.972 98.5139C118.486 95.0339 111.731 95.9972 108 95.4097C103.706 94.7336 96.4447 91.143 92.2785 92.6937C86.4699 94.8557 86.0435 112.748 86 118z"/>
<path style="fill:#747474; stroke:none;" d="M95 92L96 93L95 92M155.667 92.3333L156.333 92.6667L155.667 92.3333M179.333 92.6667L179.667 93.3333L179.333 92.6667M208.333 92.6667L208.667 93.3333L208.333 92.6667M34 93L34 96L35 96L34 93M99 93L99 94L102 94L99 93M149 93L149 94L152 94L149 93M168.333 93.6667L168.667 94.3333L168.333 93.6667M47.3333 94.6667L47.6667 95.3333L47.3333 94.6667M102 94L102 95L107 95L102 94M140 94L140 95L148 95L140 94M89 95L90 96L89 95M108 95L108 96L112 96L108 95M134 95L134 96L138 96L134 95M209 95L210 96L209 95M222 95L223 96L222 95M76.3333 96.6667L76.6667 97.3333L76.3333 96.6667M118 96L118 97L121 97L118 96M133 96L134 97L133 96M180 96L180 99L181 99L180 96M46.3333 97.6667L46.6667 98.3333L46.3333 97.6667M121 97L122 98L121 97M169.333 97.6667L169.667 98.3333L169.333 97.6667M33 98L34 99L33 98M88 98L88 101L89 101L88 98M122 98L122 117L123 117L122 98M210.333 98.6667L210.667 99.3333L210.333 98.6667M223.333 98.6667L223.667 99.3333L223.333 98.6667M45 100L45 103L46 103L45 100M75 100L75 104L76 104L75 100M181 100L181 103L182 103L181 100M211 100L211 103L212 103L211 100M32 101L32 104L33 104L32 101M224 101L224 105L225 105L224 101M87 102L87 105L88 105L87 102M170 102L170 105L171 105L170 102M44 103L44 106L45 106L44 103M74 104L74 109L75 109L74 104M212 104L212 107L213 107L212 104M31 105L31 109L32 109L31 105M171 106L171 111L172 111L171 106M182 106L182 109L183 109L182 106M225 106L225 109L226 109L225 106M43 108L43 111L44 111L43 108M86 108L86 111L87 111L86 108M213 110L213 114L214 114L213 110M30 112L30 115L31 115L30 112M73 113L73 117L74 117L73 113M172 114L171 120L172 114M226 114L226 122L227 122L226 114M42 115L42 118L43 118L42 115M183 115L183 118L184 118L183 115M214 115L214 118L215 118L214 115M43 118L43 119L73 119L43 118M86 118L86 119L122 119C112.44 114.989 96.387 118 86 118M133 118L133 120L135 120L133 118M184 118L184 119L214 119L184 118M226 127L226 135L227 135L226 127M42 134L43 134L43 131L73 131C67.157 128.548 44.2171 127.32 42 134M86 130L86 131L111 131L120.972 133.318L122 151L123 143L121.397 131.603L111 130L86 130M135 153L136 153L135 131C144.116 131 164.385 127.245 171 134C171.93 127.761 157.977 130 154 130C149.487 130 139.294 128.105 135.603 131.028C131.653 134.157 133.743 148.747 135 153M183 134L184 134L184 131L214 131L214 135C216.29 128.012 185.344 126.938 183 134z"/>
<path style="fill:#48a6ea; stroke:none;" d="M43 131C43.0417 146.117 49.2336 160.311 57 173L78 163L73 131L43 131M86 131L90 157L112 153.286L120.972 151.397L122 142L120.397 132.028L111 131L86 131M135 131L136.028 151.397L145 153.286L167 157C167.763 151.333 173.378 137.717 169.883 132.603C168.242 130.204 163.463 131.001 161 131L135 131M184 131L179.643 161.585L200 173C207.528 159.889 213.343 146.313 214 131L184 131z"/>
<path style="fill:#747474; stroke:none;" d="M73 132L73 137L74 137L73 132M30 134L30 138L31 138L30 134M170 135L170 140L171 140L170 135M213 136L213 140L214 140L213 136M43.3333 139.667L43.6667 140.333L43.3333 139.667M86 139L86 142L87 142L86 139M31 140L31 145L32 145L31 140M225 140L225 143L226 143L225 140M74 141L74 146L75 146L74 141M182 141L182 144L183 144L182 141M44 143L44 146L45 146L44 143M212.333 143.667L212.667 144.333L212.333 143.667M169 144L169 147L170 147L169 144M32 145L32 148L33 148L32 145M87 145L87 149L88 149L87 145M224 145L224 148L225 148L224 145M45.3333 147.667L45.6667 148.333L45.3333 147.667M75 147L75 150L76 150L75 147M181 147L181 150L182 150L181 147M211.333 147.667L211.667 148.333L211.333 147.667M88 149L88 152L89 152L88 149M168 149L168 152L169 152L168 149M223.333 149.667L223.667 150.333L223.333 149.667M33.3333 150.667L33.6667 151.333L33.3333 150.667M210.333 150.667L210.667 151.333L210.333 150.667M46 151L47 152L46 151M180 151L180 154L181 154L180 151M121 152L122 153L121 152M76.3333 153.667L76.6667 154.333L76.3333 153.667M110 153L110 154L114 154L110 153M142 153L142 154L147 154L142 153M167 153L167 156L168 156L167 153M209.333 153.667L209.667 154.333L209.333 153.667M222.333 153.667L222.667 154.333L222.333 153.667M34.3333 154.667L34.6667 155.333L34.3333 154.667M47.3333 154.667L47.6667 155.333L47.3333 154.667M89.3333 154.667L89.6667 155.333L89.3333 154.667M104 154L104 155L109 155L104 154M148 154L148 155L153 155L148 154M100.667 155.333L101.333 155.667L100.667 155.333M154 155L154 156L157 156L154 155M35.3333 156.667L35.6667 157.333L35.3333 156.667M48.3333 156.667L48.6667 157.333L48.3333 156.667M95.6667 156.333L96.3333 156.667L95.6667 156.333M160.667 156.333L161.333 156.667L160.667 156.333M179.333 156.667L179.667 157.333L179.333 156.667M208.333 156.667L208.667 157.333L208.333 156.667M221.333 156.667L221.667 157.333L221.333 156.667M77.3333 157.667L77.6667 158.333L77.3333 157.667M90 157L90 158L94 158L90 157M162 157L162 158L167 158L162 157M207.333 158.667L207.667 159.333L207.333 158.667M36.3333 159.667L36.6667 160.333L36.3333 159.667M49 159L50 160L49 159M220.333 159.667L220.667 160.333L220.333 159.667M78 160L78 163L79 163L78 160M178 160L178 163L179 163L178 160M50 161L51 162L50 161M206 161L207 162L206 161M37.3333 162.667L37.6667 163.333L37.3333 162.667M219 162L220 163L219 162M51 163L52 164L51 163M75.6667 163.333L76.3333 163.667L75.6667 163.333M180 163L181 164L180 163M205 163L206 164L205 163M38.3333 164.667L38.6667 165.333L38.3333 164.667M73.6667 164.333L74.3333 164.667L73.6667 164.333M182.667 164.333L183.333 164.667L182.667 164.333M204.333 164.667L204.667 165.333L204.333 164.667M218 164L219 165L218 164M52 165L53 166L52 165M72 165L73 166L72 165M115 165L115 166L119 166L115 165z"/>
<path style="fill:#48a6ea; stroke:none;" d="M96 169C96.783 176.644 109.266 203.437 119.682 198.396C122.626 196.971 121.994 192.687 122 190C122.016 181.99 123.278 172.708 121 165L96 169z"/>
<path style="fill:#747474; stroke:none;" d="M121 165C123.356 174.896 123.356 189.104 121 199C125.093 195.424 125.093 168.576 121 165M134 165L134 199L135 199L134 165z"/>
<path style="fill:#48a6ea; stroke:none;" d="M135 165L135 199C148.123 198.99 159.704 181.587 161 169L135 165z"/>
<path style="fill:#747474; stroke:none;" d="M137 165L137 166L142 166L137 165M184 165L185 166L184 165M39.3333 166.667L39.6667 167.333L39.3333 166.667M69 166L70 167L69 166M107 166L107 167L110 167L107 166M147 166L147 167L150 167L147 166M186.667 166.333L187.333 166.667L186.667 166.333M203.333 166.667L203.667 167.333L203.333 166.667M217.333 166.667L217.667 167.333L217.333 166.667M53 167L54 168L53 167M67.6667 167.333L68.3333 167.667L67.6667 167.333M102 167L102 168L106 168L102 167M151 167L151 168L155 168L151 167M188.667 167.333L189.333 167.667L188.667 167.333M54.3333 168.667L54.6667 169.333L54.3333 168.667M66 168L67 169L66 168M99.6667 168.333L100.333 168.667L99.6667 168.333M156.667 168.333L157.333 168.667L156.667 168.333M190 168L191 169L190 168M216 168L217 169L216 168M40 169L41 170L40 169M64 169L65 170L64 169M95 169L95 172L96 172L95 169M161 169L161 172L162 172L161 169M192 169L193 170L192 169M41.3333 170.667L41.6667 171.333L41.3333 170.667M55 170L56 171L55 170M62 170L63 171L62 170M194 170L195 171L194 170M201 170L202 171L201 170M215 170L216 171L215 170M60.6667 171.333L61.3333 171.667L60.6667 171.333M195 171L196 172L195 171M200.333 171.667L200.667 172.333L200.333 171.667M42 172L43 173L42 172M56 172L57 173L56 172M59 172L60 173L59 172M197 172L198 173L197 172M214 172L215 173L214 172M96 173L97 174L96 173M160 173L161 174L160 173M199 173L200 174L199 173M43 174L44 175L43 174M81 174L81 175L85 180L86 180L81 174M173 174L173 175L176 175L173 174M213 174L214 175L213 174M79 175L80 176L79 175z"/>
<path style="fill:#48a6ea; stroke:none;" d="M66 183C74.0002 194.35 83.5946 199 97 199C94.6458 194.268 86.8958 177.12 81.787 175.816C77.0748 174.614 69.7863 180.683 66 183z"/>
<path style="fill:#747474; stroke:none;" d="M97.3333 175.667L97.6667 176.333L97.3333 175.667M159 175L160 176L159 175z"/>
<path style="fill:#48a6ea; stroke:none;" d="M160 199C171.395 199 186.448 194.626 190 182C185.973 180.178 179.726 175.098 175.224 175.542C170.206 176.038 162.111 194.536 160 199z"/>
<path style="fill:#747474; stroke:none;" d="M177 175L178 176L177 175M44 176L45 177L44 176M77 176L78 177L77 176M172 176L173 177L172 176M179 176L180 177L179 176M45 177L46 178L45 177M75 177L76 178L75 177M98 177L99 178L98 177M158 177L159 178L158 177M180.667 177.333L181.333 177.667L180.667 177.333M211 177L212 178L211 177M73 178L74 179L73 178M157.333 178.667L157.667 179.333L157.333 178.667M171.333 178.667L171.667 179.333L171.333 178.667M182.667 178.333L183.333 178.667L182.667 178.333M210.333 178.667L210.667 179.333L210.333 178.667M46 179L47 180L46 179M71 179L72 180L71 179M99 179L100 180L99 179M185 179L186 180L185 179M47.3333 180.667L47.6667 181.333L47.3333 180.667M69.6667 180.333L70.3333 180.667L69.6667 180.333M156 180L157 181L156 180M170 180L171 181L170 180M186.667 180.333L187.333 180.667L186.667 180.333M209 180L210 181L209 180M68 181L69 182L68 181M86 181L87 182L86 181M100 181L101 182L100 181M188 181L189 182L188 181M48 182L49 183L48 182M66 182L67 183L66 182M101.333 182.667L101.667 183.333L101.333 182.667M155 182L156 183L155 182M169 182L170 183L169 182M190 182L190 185L191 185L190 182M208 182L209 183L208 182M49 183L50 184L49 183M87 183L88 184L87 183M207 183L208 184L207 183M50 184L51 185L50 184M66 184L67 185L66 184M88.3333 184.667L88.6667 185.333L88.3333 184.667M102 184L103 185L102 184M154 184L155 185L154 184M168 184L169 185L168 184M206 184L207 185L206 184M67 185L68 186L67 185M153 185L154 186L153 185M189 185L190 186L189 185M51 186L52 187L51 186M68 186L69 187L68 186M89 186L90 187L89 186M103 186L104 187L103 186M167 186L168 187L167 186M188 186L189 187L188 186M52 187L53 188L52 187M69 187L70 188L69 187M104 187L105 188L104 187M152 187L153 188L152 187M166 187L167 188L166 187M187 187L188 188L187 187M204 187L205 188L204 187M53 188L54 189L53 188M70 188L71 189L70 188M90 188L91 189L90 188M151.333 188.667L151.667 189.333L151.333 188.667M186 188L187 189L186 188M203 188L204 189L203 188M54 189L55 190L54 189M71 189L72 190L71 189M91.3333 189.667L91.6667 190.333L91.3333 189.667M165 189L166 190L165 189M185 189L186 190L185 189M202 189L203 190L202 189M55 190L56 191L55 190M72 190L73 191L72 190M106 190L107 191L106 190M150 190L151 191L150 190M183.667 190.333L184.333 190.667L183.667 190.333M201 190L202 191L201 190M73 191L74 192L73 191M92 191L93 192L92 191M107.333 191.667L107.667 192.333L107.333 191.667M149 191L150 192L149 191M164 191L165 192L164 191M200 191L201 192L200 191M75 192L76 193L75 192M163 192L164 193L163 192M181 192L182 193L181 192M58.3333 193.667L58.6667 194.333L58.3333 193.667M76 193L77 194L76 193M93 193L94 194L93 193M108 193L109 194L108 193M148 193L149 194L148 193M180 193L181 194L180 193M198 193L199 194L198 193M77 194L78 195L77 194M94 194L95 195L94 194M109 194L110 195L109 194M147 194L148 195L147 194M162 194L163 195L162 194M178.667 194.333L179.333 194.667L178.667 194.333M197 194L198 195L197 194M79 195L80 196L79 195M95 195L96 196L95 195M110 195L111 196L110 195M146 195L147 196L146 195M161 195L162 196L161 195M177 195L178 196L177 195M61 196L62 197L61 196M80 196L81 197L80 196M111.333 196.667L111.667 197.333L111.333 196.667M145 196L146 197L145 196M160.333 196.667L160.667 197.333L160.333 196.667M175 196L176 197L175 196M195 196L196 197L195 196M62.3333 197.667L62.6667 198.333L62.3333 197.667M82 197L83 198L82 197M96 197L97 198L96 197M144 197L145 198L144 197M174 197L175 198L174 197M194.333 197.667L194.667 198.333L194.333 197.667M17 198L18 199L17 198M83 198L84 199L83 198M112 198L113 199L112 198M172 198L173 199L172 198M75 252L76 252C76 245.238 72.9094 227.949 79 224C72.5554 222.553 75 247.242 75 252M96 223L96 224L100 224L96 223M107 223L107 224L118 224L107 223M133 223L133 224L149 224L133 223M155 223L155 224L165 224L155 223M176 223L176 224L202 224L176 223M217 223L217 224L220 224L217 223z"/>
<path style="fill:#f7f7f7; stroke:none;" d="M76 224L76 252L91 252L91 249L79 249L79 224L76 224z"/>
<path style="fill:#acacad; stroke:none;" d="M96 224L96 252L97 252L96 224z"/>
<path style="fill:#f7f7f7; stroke:none;" d="M97 224L97 252L99 252L99 224L97 224z"/>
<path style="fill:#acacad; stroke:none;" d="M99 224L99 252L100 252L99 224M107 224L107 252L108 252L107 224z"/>
<path style="fill:#f7f7f7; stroke:none;" d="M108 224L108 252C112.744 252 118.692 252.75 122.891 250.062C128.637 246.383 126.911 239.755 121 238C131.491 226.124 118.378 224 108 224z"/>
<path style="fill:#acacad; stroke:none;" d="M121 224L122 225L121 224z"/>
<path style="fill:#f7f7f7; stroke:none;" d="M133 224L133 252L149 252L149 249L136 249L136 238L148 238L148 236L136 236L136 226L149 226L149 224L133 224z"/>
<path style="fill:#acacad; stroke:none;" d="M155 224L155 252L156 252L155 224z"/>
<path style="fill:#f7f7f7; stroke:none;" d="M156 224L156 252L158 252L158 240L175 252C173.452 248.688 169.879 244.697 169.674 241C169.492 237.719 172.579 235.287 172.793 232.001C173.388 222.856 161.964 224 156 224z"/>
<path style="fill:#acacad; stroke:none;" d="M168 224L169 225L168 224M176 224L185 227L185 252L186 252L184.972 227.603L176 224z"/>
<path style="fill:#f7f7f7; stroke:none;" d="M177 224L177 226C190.159 226.156 186 242.289 186 252L188 252C188 242.289 183.841 226.156 197 226L197 224L177 224z"/>
<path style="fill:#acacad; stroke:none;" d="M197 224L189 226L189 227L199 224L197 224z"/>
<path style="fill:#f7f7f7; stroke:none;" d="M199 224L208 252L211 252L219 224L209 238L202 224L199 224z"/>
<path style="fill:#acacad; stroke:none;" d="M216 224L217 225L216 224M219 224L220 225L219 224M123 225L124 226L123 225M170 225L171 226L170 225M202 225L203 226L202 225z"/>
<path style="fill:#747474; stroke:none;" d="M215 225L216 226L215 225M219 225L220 226L219 225M111 226L111 227L116 227L111 226z"/>
<path style="fill:#acacad; stroke:none;" d="M116 226L116 227L119 227L116 226M124 226L125 227L124 226M136 226L136 227L149 227L136 226z"/>
<path style="fill:#747474; stroke:none;" d="M159 226L159 227L163 227L159 226z"/>
<path style="fill:#acacad; stroke:none;" d="M163 226L163 227L166 227L163 226M171 226L172 227L171 226z"/>
<path style="fill:#747474; stroke:none;" d="M176 226L177 227L176 226M197 226L198 227L197 226M199 226L200 227L199 226z"/>
<path style="fill:#acacad; stroke:none;" d="M218 226L219 227L218 226M110 227L110 236L111 236L110 227z"/>
<path style="fill:#242527; stroke:none;" d="M111 227L111 235C123.862 234.999 123.847 227.008 111 227z"/>
<path style="fill:#747474; stroke:none;" d="M120 227L121 228L120 227M125 227L126 228L125 227M136 227C136.032 236.125 139.801 236 148 236L148 235L137 235L136 227z"/>
<path style="fill:#acacad; stroke:none;" d="M158 227C158.001 232.656 157.222 237.472 164 238L164 237L159 237L158 227z"/>
<path style="fill:#242527; stroke:none;" d="M159 227L159 237C171.391 236.956 171.553 227.036 159 227z"/>
<path style="fill:#747474; stroke:none;" d="M167 227L168 228L167 227M172 227L173 228L172 227z"/>
<path style="fill:#acacad; stroke:none;" d="M188 227L188 252L189 252L188 227M203 227L204 228L203 227z"/>
<path style="fill:#747474; stroke:none;" d="M214 227L215 228L214 227z"/>
<path style="fill:#acacad; stroke:none;" d="M125 228L126 229L125 228z"/>
<path style="fill:#747474; stroke:none;" d="M200 228L201 229L200 228M204 228L205 229L204 228z"/>
<path style="fill:#acacad; stroke:none;" d="M217 228L218 229L217 228M122 229L123 230L122 229z"/>
<path style="fill:#747474; stroke:none;" d="M169.333 229.667L169.667 230.333L169.333 229.667z"/>
<path style="fill:#acacad; stroke:none;" d="M204 229L205 230L204 229z"/>
<path style="fill:#747474; stroke:none;" d="M213 229L214 230L213 229M122.333 230.667L122.667 231.333L122.333 230.667M173 230L173 233L174 233L173 230M201 230L202 231L201 230M205 230L206 231L205 230z"/>
<path style="fill:#acacad; stroke:none;" d="M216 230L217 231L216 230M202 231L203 232L202 231M212 231L213 232L212 231M122 232L123 233L122 232z"/>
<path style="fill:#747474; stroke:none;" d="M202 232L203 233L202 232M206 232L207 233L206 232M215 232L216 233L215 232M125 233L126 234L125 233M169 233L170 234L169 233z"/>
<path style="fill:#acacad; stroke:none;" d="M203 233L204 234L203 233M211 233L212 234L211 233M121 234L122 235L121 234M169 234L170 235L169 234z"/>
<path style="fill:#747474; stroke:none;" d="M207 234L208 235L207 234M214 234L215 235L214 234M111 235L111 236L119 236L111 235z"/>
<path style="fill:#acacad; stroke:none;" d="M119 235L120 236L119 235M123 235L124 236L123 235M136 235L137 236L136 235z"/>
<path style="fill:#747474; stroke:none;" d="M168 235L169 236L168 235M172 235L173 236L172 235z"/>
<path style="fill:#acacad; stroke:none;" d="M204 235L205 236L204 235M210 235L211 236L210 235M121.333 236.667L121.667 237.333L121.333 236.667z"/>
<path style="fill:#747474; stroke:none;" d="M122.333 236.667L122.667 237.333L122.333 236.667M148.333 236.667L148.667 237.333L148.333 236.667z"/>
<path style="fill:#acacad; stroke:none;" d="M167 236L168 237L167 236M171 236L172 237L171 236z"/>
<path style="fill:#747474; stroke:none;" d="M208 236L209 237L208 236M213 236L214 237L213 236z"/>
<path style="fill:#acacad; stroke:none;" d="M170 237L171 238L170 237z"/>
<path style="fill:#747474; stroke:none;" d="M205 237L206 238L205 237z"/>
<path style="fill:#acacad; stroke:none;" d="M209 237L210 238L209 237M212 237L213 238L212 237M110 249L111 249L111 239L119 239C110.58 235.475 110.001 242.546 110 249z"/>
<path style="fill:#747474; stroke:none;" d="M124 238L125 239L124 238z"/>
<path style="fill:#acacad; stroke:none;" d="M136 238L136 239L148 239L136 238z"/>
<path style="fill:#747474; stroke:none;" d="M169 238L170 239L169 238z"/>
<path style="fill:#242527; stroke:none;" d="M111 239L111 249C125.134 248.991 125.134 239.009 111 239z"/>
<path style="fill:#747474; stroke:none;" d="M120 239L121 240L120 239z"/>
<path style="fill:#acacad; stroke:none;" d="M121 239L122 240L121 239M125 239L126 240L125 239z"/>
<path style="fill:#747474; stroke:none;" d="M136 239L136 249L137 249L136 239M206 239L207 240L206 239z"/>
<path style="fill:#acacad; stroke:none;" d="M211 239L212 240L211 239M122 240L123 241L122 240z"/>
<path style="fill:#747474; stroke:none;" d="M126 240L127 241L126 240z"/>
<path style="fill:#acacad; stroke:none;" d="M158 240L158 252L159 252L158 240z"/>
<path style="fill:#747474; stroke:none;" d="M164 240L165 241L164 240M168 240L169 241L168 240z"/>
<path style="fill:#acacad; stroke:none;" d="M126 241L127 242L126 241M165 241L166 242L165 241M207 241L207 252L208 252L207 241M123 242L124 243L123 242M169 242L170 243L169 242z"/>
<path style="fill:#747474; stroke:none;" d="M123 243L124 244L123 243M166 243L167 244L166 243M170 243L171 244L170 243z"/>
<path style="fill:#acacad; stroke:none;" d="M123.333 244.667L123.667 245.333L123.333 244.667z"/>
<path style="fill:#747474; stroke:none;" d="M167 245L168 246L167 245z"/>
<path style="fill:#acacad; stroke:none;" d="M171 245L172 246L171 245M126 246L127 247L126 246M168 246L169 247L168 246z"/>
<path style="fill:#747474; stroke:none;" d="M126 247L127 248L126 247z"/>
<path style="fill:#acacad; stroke:none;" d="M172 247L173 248L172 247M120 248L121 249L120 248M125 248L126 249L125 248M169 248L170 249L169 248z"/>
<path style="fill:#747474; stroke:none;" d="M173 248L174 249L173 248z"/>
<path style="fill:#acacad; stroke:none;" d="M91 249L91 252L92 252L91 249M124 249L125 250L124 249z"/>
<path style="fill:#747474; stroke:none;" d="M123 250L124 251L123 250M170 250L171 251L170 250z"/>
<path style="fill:#acacad; stroke:none;" d="M174 250L175 251L174 250M119.667 251.333L120.333 251.667L119.667 251.333z"/>
<path style="fill:#747474; stroke:none;" d="M121 251L122 252L121 251z"/>
<path style="fill:#acacad; stroke:none;" d="M171 251L172 252L171 251z"/>
<path style="fill:#747474; stroke:none;" d="M3 267L5 273L6 273L3 267z"/>
<path style="fill:#acacad; stroke:none;" d="M3 269L4 270L3 269M4 272L5 273L4 272M5 273L7 276L5 273z"/>
<path style="fill:#747474; stroke:none;" d="M6 274L7 275L6 274M285 274L283 277L285 274z"/>
<path style="fill:#acacad; stroke:none;" d="M285 275L283 278L285 275z"/>
<path style="fill:#747474; stroke:none;" d="M7 276L11 280L7 276z"/>
<path style="fill:#f7f7f7; stroke:none;" d="M285 276L280 282L286 282L285 276z"/>
<path style="fill:#acacad; stroke:none;" d="M7 277L8 278L7 277M8 278L9 279L8 278z"/>
<path style="fill:#747474; stroke:none;" d="M282 278L283 279L282 278z"/>
<path style="fill:#acacad; stroke:none;" d="M9 279L10 280L9 279z"/>
<path style="fill:#747474; stroke:none;" d="M278 282L282 280L278 282z"/>
<path style="fill:#acacad; stroke:none;" d="M10 280L10 281L13 282L10 280z"/>
<path style="fill:#747474; stroke:none;" d="M12 280L13 281L12 280z"/>
<path style="fill:#acacad; stroke:none;" d="M280 280L281 281L280 280z"/>
<path style="fill:#747474; stroke:none;" d="M13 281L14 282L13 281z"/>
<path style="fill:#acacad; stroke:none;" d="M279 281L280 282L279 281z"/>
</svg>
