<?xml version="1.0" standalone="yes"?>
<svg xmlns="http://www.w3.org/2000/svg" width="385" height="378">
<path style="fill:#fdfdfd; stroke:none;" d="M0 0L0 17L1 17C17.057 -4.01611 54.3009 4 78 4L291 4L342 4C354.032 4 364.591 3.37271 373.37 13.1736C381.989 22.7957 381 33.9955 381 46L381 102L381 287C381 316.167 386.525 351.117 375 378L385 378L385 0L0 0z"/>
<path style="fill:#aeaeae; stroke:none;" d="M0 19L1 19C5.3537 12.0973 11.3103 7.6235 19 5C11.1104 3.36819 2.57709 12.3488 0 19z"/>
<path style="fill:#717171; stroke:none;" d="M17 5L17 6L21 4L17 5z"/>
<path style="fill:#252423; stroke:none;" d="M21.4244 4.71375C13.5538 7.09531 4.94974 11.4377 1.22839 19.2855C-1.40608 24.8412 0 33 0 39L0 83L0 297L0 352C0 359.007 -1.77518 368.945 2.85417 374.852C7.15004 380.334 18.7868 378 25 378L89 378L287 378L345 378C352.558 378 363.884 380.114 370.981 377.397C378.032 374.698 379.916 363.565 379.996 357C380.25 336.34 380 315.661 380 295L380 92L380 45C380 34.3068 380.484 23.9219 373.334 15.0934C364.588 4.29355 351.712 4 339 4L288 4L104 4L48 4C39.7546 4 29.354 2.3143 21.4244 4.71375z"/>
<path style="fill:#717171; stroke:none;" d="M356 4L356 5L360 6L356 4z"/>
<path style="fill:#aeaeae; stroke:none;" d="M359 4L359 5C366.14 8.04529 371.258 11.7803 376 18L377 18C373.717 10.696 366.644 5.92703 359 4z"/>
<path style="fill:#717171; stroke:none;" d="M14.6667 6.33334L15.3333 6.66666L14.6667 6.33334M361 6L361 7L365 8L365 7L361 6M12.6667 7.33334L13.3333 7.66666L12.6667 7.33334M9 10L12 8L9 10M366 8L367 9L366 8M367.667 9.33334L368.333 9.66666L367.667 9.33334M8 10L9 11L8 10M369 10L369 12L371 12L369 10M7 11L8 12L7 11M4 15L7 12L4 15M371 12L372 13L371 12M372 13L373 14L372 13M373 14L375 17L373 14M3 15L4 16L3 15M2 16L1 18L3 18L2 16M375 17L376 18L375 17M376 18C383.937 47.6785 380 81.2523 380 112L380 281L380 335C380 351.062 380.951 364.016 372 378C379.252 374.022 380.962 363.635 380.999 356C381.095 336.334 381 316.666 381 297L381 94L381 44C381 35.1635 381.863 25.3352 376 18M0.333333 19.6667L0.666667 20.3333L0.333333 19.6667z"/>
<path style="fill:#aeaeae; stroke:none;" d="M377 19L378 20L377 19M378.333 20.6667L378.667 21.3333L378.333 20.6667z"/>
<path style="fill:#717171; stroke:none;" d="M16 43L17 43C17.3924 34.5348 22.5732 27.0737 31 24.6381C48.0648 19.7059 72.2217 24 90 24L279 24L328 24C335.891 24 344.94 22.6288 351.907 27.0941C367.903 37.3477 361 72.5677 361 89L361 272L174 272L135 272L119.279 270.972L115 259C113.637 262.494 114.376 270.526 118.303 272.397C127.493 276.773 146.804 273 157 273L306 273L348 273C351.471 273 359.515 274.507 361.397 270.682C363.377 266.657 362 259.404 362 255L362 217L362 82C362 66.3471 368.136 35.9107 352.985 25.9699C341.45 18.4015 317.42 23 304 23L182 23L55 23C38.5845 23 16.2036 20.2238 16 43z"/>
<path style="fill:#aeaeae; stroke:none;" d="M379 23L380 28L381 28L379 23z"/>
<path style="fill:#f19c39; stroke:none;" d="M16 272L100 272C92.7756 249.218 89.4575 224.382 84.49 201C78.4637 172.634 71.4028 144.486 65.9059 116C63.4031 103.03 59.7298 90.0822 57.9498 77C57.3804 72.815 55.0977 68.1231 57.3218 64.0949C61.2398 56.9985 65.633 62.7044 71 63.2662C74.3442 63.6163 77.9472 61.6478 81 60.5193C100.918 53.1562 130.979 40.9357 151 53.9661C167.744 64.8638 175.219 93.3151 198 93.9846C219.349 94.612 237.25 89.899 257 82C262.477 79.8096 271.605 73.7596 275.431 81.0339C282.164 93.8355 281.212 111.101 283.804 125C286.078 137.195 285.994 149.699 287.17 162C287.641 166.929 290.394 174.052 288.396 178.812C286.108 184.262 275.059 186.761 270 188.799C252.401 195.89 227.036 205.403 208 198.756C189.713 192.371 184.412 171.823 170.482 160.345C156.232 148.603 133.907 153.326 118 158.491C112.027 160.43 100.928 161.824 96.6073 166.652C92.8751 170.822 97.9211 183.062 98.909 188C102.99 208.4 107.999 228.637 112.285 249C113.339 254.008 114.28 269.073 119.279 271.397C124.568 273.855 134.229 272 140 272L189 272L361 272L361 96L361 53C361 45.1953 361.93 36.977 356.613 30.5178C351.004 23.705 343.02 24 335 24L289 24L94 24L43 24C34.0996 24 25.4787 23.7696 19.8542 32.0154C15.4449 38.4796 16 47.538 16 55L16 99L16 272z"/>
<path style="fill:#717171; stroke:none;" d="M120 49L120 50L140 50L120 49M109 51L109 52L119 51L109 51M141 50L141 51L147 52L141 50M101 53L101 54L108 53L101 53M147.667 52.3333L148.333 52.6667L147.667 52.3333M149.667 53.3333L150.333 53.6667L149.667 53.3333M94 55L94 56L101 55L94 55M151 54L154 56L151 54M83 59L83 60L94 57L83 59M154 56L154 58L156 58L154 56M156 58L157 59L156 58M60 60L60 61L67 62L60 60M157 59L158 60L157 59M81.6667 60.3333L82.3333 60.6667L81.6667 60.3333M158 60L159 61L158 60M58 61L58 63L60 61L58 61M76 62L76 63L81 62L76 62M159 61L160 62L159 61M67 62L68 63L67 62M160 62L162 65L160 62M57 63L57 74L58 74L57 63M68 63L68 64L76 64L76 63L68 63M162 65L166 70L162 65M166 70L167 71L166 70M167.333 71.6667L167.667 72.3333L167.333 71.6667M168 73L172 78L168 73M58 74L59 84L60 84L58 74M271.667 76.3333L272.333 76.6667L271.667 76.3333M74 77L84 127L85 127L76 79C95.0293 98.1902 99.1867 125.426 92 151L91 151L86 128L85 128L91 152L93 152C100.652 131.003 98.7947 86.8709 74 77M265 78L265 79L270 78L265 78M273 77L275 80L273 77M172 78L175 81L172 78z"/>
<path style="fill:#f19c39; stroke:none;" d="M76 79L91 151L92 151C100.174 129.174 96.1053 93.2823 76 79z"/>
<path style="fill:#717171; stroke:none;" d="M260 80L260 81L265 80L260 80M275 80L276 87L277 87L275 80M175 81L175 83L177 83L175 81M255 82L255 83L260 82L255 82M177 83L181 87L177 83M250 84L250 85L255 84L250 84M60 85L61 95L62 95L60 85M243 87L243 88L250 86L243 87M181 87L181 89L183 89L181 87M277 87L278 96L279 96L277 87M237 89L237 90L243 89L237 89M183 89L184 90L183 89M184 90L184 91L188 92L188 91L184 90M230 91L230 92L237 91L230 91M188 92L188 93L193 94L193 93L188 92M221 93L221 94L230 93L221 93M193 94L193 95L221 95L193 94M62 95L63 104L64 104L62 95M279 97L280 108L281 108L279 97M64 105L65 114L66 114L64 105M281 108L282 123L283 123L281 108M66 115L67 124L68 124L66 115M283 123C283.051 141.341 290.897 163.077 287 181C290.802 177.677 288.492 170.476 287.87 166C286.051 152.909 288.766 134.999 283 123M68 125L69 134L70 134L68 125M70 134L80 183L81 183C79.9212 169.35 77.0315 145.72 70 134M124 155L124 156C139.473 155.67 150.494 153.327 166 157C154.937 147.055 136.804 153.884 124 155M98 164L98 165L124 157C116.802 154.815 104.773 161.319 98 164M166.667 157.333L167.333 157.667L166.667 157.333M168 158L169 159L168 158M169.667 159.333L170.333 159.667L169.667 159.333M171 160L171 162L173 162L171 160M173 162L173 164L175 164L173 162M175 164L178 168L175 164M95 167L98 166L95 167M94 167L94 172L95 172L94 167M178 168L179 169L178 168M179 169L181 172L179 169M95 172L96 182L97 182L95 172M181 172L183 175L181 172M183 175L185 178L183 175M185 178L186 179L185 178M186 179L188 182L186 179M281 183L281 184L287 182L281 183M97 182L105 222L106 222C105.101 210.621 102.87 191.783 97 182M188 182L191 186L188 182M81 183L82 192L83 192L81 183M278 184L278 185L281 185L278 184M276.667 185.333L277.333 185.667L276.667 185.333M191 186L192 187L191 186M271 187L271 188L276 187L271 187M192 187L193 188L192 187M193 188L194 189L193 188M266 189L266 190L271 189L266 189M194 189L194 191L196 191L194 189M261 191L261 192L266 191L261 191M196 191L197 192L196 191M83 192L84 201L85 201L83 192M197 192L198 193L197 192M255 193L255 194L260 193L255 193M198 193L199 194L198 193M199 194L202 196L199 194M247 195L247 196L254 195L247 195M202.667 196.333L203.333 196.667L202.667 196.333M239 197L239 198L247 197L239 197M204 197L204 198L207 198L204 197M207 198L207 199L239 199L239 198L207 198M85 202L86 211L87 211L85 202M87 211L88 220L89 220L87 211M89 221L90 229L91 229L89 221M106 222L107 231L108 231L106 222M91 230L92 239L93 239L91 230M108 231L109 240L110 240L108 231M93 239L100 272L101 272L93 239M110 241L111 249L112 249L110 241M112 250L113 258L114 258L112 250M16 272L16 273L100 273L74 272L16 272M40 307L40 308L49 308L40 307M69 307L69 308L88 308L69 307M96 307L96 308L99 308L99 338L100 338C100 331.081 103.521 309.496 96 307M121 307L121 308L124 308L124 342L125 342C125 334.682 128.78 309.582 121 307M145 307L145 308L148 308L145 307z"/>
<path style="fill:#aeaeae; stroke:none;" d="M148 307L148 308L152 308L148 307z"/>
<path style="fill:#717171; stroke:none;" d="M152 307L152 308L155 308L152 307M168 342L169 342C169 334.47 165.359 312.305 172 308C167.778 307.052 168.023 311.832 168.001 315C167.939 323.999 168 333.001 168 342M192 307L193 308L192 307z"/>
<path style="fill:#aeaeae; stroke:none;" d="M193 307L193 308L199 308L193 307z"/>
<path style="fill:#717171; stroke:none;" d="M199.667 307.333L200.333 307.667L199.667 307.333M219 307L219 308L223 308L219 307M242 307L242 308L245 308L245 331L246 331C246 324.806 248.976 309.315 242 307M260.667 307.333L261.333 307.667L260.667 307.333z"/>
<path style="fill:#aeaeae; stroke:none;" d="M262 307L262 308L266 308L262 307z"/>
<path style="fill:#717171; stroke:none;" d="M266 307L266 308L269 308L266 307M280 342L281 342C281 334.47 277.359 312.305 284 308C279.778 307.052 280.023 311.832 280.001 315C279.939 323.999 280 333.001 280 342M290 307L290 308L315 308L290 307M316 307L316 308L320 308L316 307M339 307L339 308L343 309L343 308L339 307z"/>
<path style="fill:#aeaeae; stroke:none;" d="M39 308L39 342L40 342L39 308z"/>
<path style="fill:#fdfdfd; stroke:none;" d="M40 308L40 342L43 342L43 327C54.1375 327.362 53.1834 340.449 63 342L54 326C60.2539 322.988 63.3588 313.577 55.8912 309.573C51.28 307.1 45.0435 308 40 308z"/>
<path style="fill:#aeaeae; stroke:none;" d="M53 308L54 309L53 308z"/>
<path style="fill:#717171; stroke:none;" d="M54 308L55 309L54 308z"/>
<path style="fill:#fdfdfd; stroke:none;" d="M69 308L69 342L88 342L88 339L73 339L73 326L87 326L87 323L73 323L73 311L88 311L88 308L69 308z"/>
<path style="fill:#aeaeae; stroke:none;" d="M95 308L95 342L96 342L95 308z"/>
<path style="fill:#fdfdfd; stroke:none;" d="M96 308L96 342L114 342L114 339L99 339L99 308L96 308z"/>
<path style="fill:#aeaeae; stroke:none;" d="M120 308L120 342L121 342L120 308z"/>
<path style="fill:#fdfdfd; stroke:none;" d="M121 308L121 342L124 342L124 308L121 308z"/>
<path style="fill:#717171; stroke:none;" d="M142 308L143 309L142 308z"/>
<path style="fill:#aeaeae; stroke:none;" d="M143 308L144 309L143 308z"/>
<path style="fill:#fdfdfd; stroke:none;" d="M160 341L160 324L149 324L149 327C162.227 327.431 156.256 343.081 144.015 337.991C134.606 334.078 133.439 319.793 141.188 313.653C146.402 309.522 153.017 311.528 159 312C156.76 304.342 141.415 308.034 137.079 312.157C129.541 319.325 130.398 335.372 140.019 340.38C146.025 343.506 153.646 341.754 160 341z"/>
<path style="fill:#aeaeae; stroke:none;" d="M156 308L157 309L156 308z"/>
<path style="fill:#717171; stroke:none;" d="M157 308L158 309L157 308z"/>
<path style="fill:#fdfdfd; stroke:none;" d="M169 308L169 342L172 342L172 308L169 308z"/>
<path style="fill:#aeaeae; stroke:none;" d="M172 308L172 342L173 342L172 308M189 308L190 309L189 308z"/>
<path style="fill:#fdfdfd; stroke:none;" d="M190.004 308.653C171.959 314.388 181.378 348.207 201.996 341.146C220.691 334.744 211.035 301.968 190.004 308.653z"/>
<path style="fill:#aeaeae; stroke:none;" d="M202 308L203 309L202 308z"/>
<path style="fill:#717171; stroke:none;" d="M203 308L204 309L203 308z"/>
<path style="fill:#fdfdfd; stroke:none;" d="M219 308C219 316.546 216.735 329.248 221.303 336.895C225.847 344.5 239.515 343.548 243.543 335.957C247.39 328.707 245 316.033 245 308L242 308C242 315.641 244.112 327.164 240.062 333.981C236.427 340.097 227.679 340.519 224.179 333.956C220.686 327.406 223 315.29 223 308L219 308z"/>
<path style="fill:#aeaeae; stroke:none;" d="M241 308L241 331L242 331L241 308z"/>
<path style="fill:#717171; stroke:none;" d="M257 308L258 309L257 308z"/>
<path style="fill:#fdfdfd; stroke:none;" d="M253 338C255.674 345.604 271.424 342.727 272.768 334.985C274.62 324.31 263.708 325.565 258.718 319.621C254.084 314.101 261.164 310.798 265.995 311.174C268.001 311.331 270.005 311.748 272 312C269.4 304.607 254.239 307.153 253.272 315.015C252.064 324.844 264.021 324.42 268.238 330.34C272.199 335.901 264.388 339.059 260.002 338.895C257.661 338.808 255.32 338.293 253 338z"/>
<path style="fill:#aeaeae; stroke:none;" d="M270 308L271 309L270 308z"/>
<path style="fill:#717171; stroke:none;" d="M271 308L272 309L271 308z"/>
<path style="fill:#fdfdfd; stroke:none;" d="M281 308L281 342L284 342L284 308L281 308z"/>
<path style="fill:#aeaeae; stroke:none;" d="M284 308L284 342L285 342L284 308z"/>
<path style="fill:#fdfdfd; stroke:none;" d="M290 308L290 311L301 311L301 342L304 342C304 329.721 298.8 311.013 315 311L315 308L290 308z"/>
<path style="fill:#aeaeae; stroke:none;" d="M315 308L315 311L316 311L317 308L315 308z"/>
<path style="fill:#fdfdfd; stroke:none;" d="M317 308L328 342L331 342C331 328.115 337.425 320.571 342 308C335.118 309.183 332.544 319.626 329 325C326.509 319.017 323.654 310.048 317 308z"/>
<path style="fill:#aeaeae; stroke:none;" d="M320 308L321 309L320 308M56 309L57 310L56 309M140 309L141 310L140 309M159 309L160 310L159 309M187 309L188 310L187 309M204 309L205 310L204 309z"/>
<path style="fill:#717171; stroke:none;" d="M255 309L256 310L255 309z"/>
<path style="fill:#aeaeae; stroke:none;" d="M256 309L257 310L256 309M272 309L273 310L272 309z"/>
<path style="fill:#717171; stroke:none;" d="M321 309L322 310L321 309M337 309L338 310L337 309M138 310L139 311L138 310M159 310L160 311L159 310M206 310L207 311L206 310M272 310L273 311L272 310z"/>
<path style="fill:#aeaeae; stroke:none;" d="M317 310L318 311L317 310M321 310L322 311L321 310z"/>
<path style="fill:#717171; stroke:none;" d="M341 310L342 311L341 310M43 311L43 324L44 324L44 312L51 312L43 311z"/>
<path style="fill:#aeaeae; stroke:none;" d="M51.6667 311.333L52.3333 311.667L51.6667 311.333z"/>
<path style="fill:#717171; stroke:none;" d="M73 311L73 312L88 312L73 311z"/>
<path style="fill:#aeaeae; stroke:none;" d="M137 311L138 312L137 311M144 311L145 312L144 311z"/>
<path style="fill:#717171; stroke:none;" d="M145 311L146 312L145 311M152.667 311.333L153.333 311.667L152.667 311.333z"/>
<path style="fill:#aeaeae; stroke:none;" d="M154 311L155 312L154 311M191 311L192 312L191 311z"/>
<path style="fill:#717171; stroke:none;" d="M192 311L193 312L192 311z"/>
<path style="fill:#252423; stroke:none;" d="M193.004 311.576C179.502 315.335 183.451 342.341 198.999 338.262C212.659 334.678 209.003 307.123 193.004 311.576z"/>
<path style="fill:#717171; stroke:none;" d="M199.667 311.333L200.333 311.667L199.667 311.333M207 311L208 312L207 311z"/>
<path style="fill:#aeaeae; stroke:none;" d="M259 311L260 312L259 311z"/>
<path style="fill:#717171; stroke:none;" d="M260 311L261 312L260 311M266.667 311.333L267.333 311.667L266.667 311.333z"/>
<path style="fill:#aeaeae; stroke:none;" d="M268 311L269 312L268 311z"/>
<path style="fill:#717171; stroke:none;" d="M290 311L290 312L300 312L300 342L301 342L301 311L290 311M305 311L305 312L316 312L305 311M322 311L323 312L322 311M336 311L337 312L336 311z"/>
<path style="fill:#aeaeae; stroke:none;" d="M340 311L341 312L340 311z"/>
<path style="fill:#252423; stroke:none;" d="M44 312L44 324C58.418 323.959 58.6626 312.01 44 312z"/>
<path style="fill:#717171; stroke:none;" d="M53 312L54 313L53 312z"/>
<path style="fill:#aeaeae; stroke:none;" d="M54 312L55 313L54 312M59 312L60 313L59 312M136 312L137 313L136 312z"/>
<path style="fill:#717171; stroke:none;" d="M142 312L143 313L142 312M156 312L157 313L156 312z"/>
<path style="fill:#aeaeae; stroke:none;" d="M157 312L158 313L157 312z"/>
<path style="fill:#717171; stroke:none;" d="M158 312L159 313L158 312z"/>
<path style="fill:#aeaeae; stroke:none;" d="M189 312L190 313L189 312z"/>
<path style="fill:#717171; stroke:none;" d="M202 312L203 313L202 312M208 312L209 313L208 312z"/>
<path style="fill:#aeaeae; stroke:none;" d="M253 312L254 313L253 312z"/>
<path style="fill:#717171; stroke:none;" d="M258 312L259 313L258 312M270.667 312.333L271.333 312.667L270.667 312.333z"/>
<path style="fill:#aeaeae; stroke:none;" d="M304 312L304 342L305 342L304 312z"/>
<path style="fill:#717171; stroke:none;" d="M318 312L319 313L318 312M340 312L341 313L340 312z"/>
<path style="fill:#aeaeae; stroke:none;" d="M55 313L56 314L55 313z"/>
<path style="fill:#717171; stroke:none;" d="M60.3333 313.667L60.6667 314.333L60.3333 313.667M135 313L136 314L135 313z"/>
<path style="fill:#aeaeae; stroke:none;" d="M140 313L141 314L140 313M183 313L184 314L183 313M188 313L189 314L188 313z"/>
<path style="fill:#717171; stroke:none;" d="M203 313L204 314L203 313M257 313L258 314L257 313M323 313L324 314L323 313z"/>
<path style="fill:#aeaeae; stroke:none;" d="M335 313L336 314L335 313M339 313L340 314L339 313z"/>
<path style="fill:#717171; stroke:none;" d="M134 314L135 315L134 314z"/>
<path style="fill:#aeaeae; stroke:none;" d="M139 314L140 315L139 314z"/>
<path style="fill:#717171; stroke:none;" d="M182 314L183 315L182 314z"/>
<path style="fill:#aeaeae; stroke:none;" d="M187 314L188 315L187 314M209 314L210 315L209 314z"/>
<path style="fill:#717171; stroke:none;" d="M319 314L320 315L319 314M339 314L340 315L339 314z"/>
<path style="fill:#aeaeae; stroke:none;" d="M56 315L57 316L56 315M60.3333 315.667L60.6667 316.333L60.3333 315.667M182 315L183 316L182 315z"/>
<path style="fill:#717171; stroke:none;" d="M205 315L206 316L205 315M252.333 315.667L252.667 316.333L252.333 315.667z"/>
<path style="fill:#aeaeae; stroke:none;" d="M256 315L257 316L256 315z"/>
<path style="fill:#717171; stroke:none;" d="M324 315L325 316L324 315z"/>
<path style="fill:#aeaeae; stroke:none;" d="M334 315L335 316L334 315M338 315L339 316L338 315z"/>
<path style="fill:#717171; stroke:none;" d="M56 316L56 319L57 319L56 316M133 316L134 317L133 316M138 316L139 317L138 316M186 316L187 317L186 316M210 316L211 317L210 316M320 316L321 317L320 316z"/>
<path style="fill:#aeaeae; stroke:none;" d="M133 317L134 318L133 317M137 317L138 318L137 317M181.333 317.667L181.667 318.333L181.333 317.667M206 317L207 318L206 317M321 317L322 318L321 317M325 317L326 318L325 317M333 317L334 318L333 317M337 317L338 318L337 317M60.3333 318.667L60.6667 319.333L60.3333 318.667z"/>
<path style="fill:#717171; stroke:none;" d="M137 318L138 319L137 318z"/>
<path style="fill:#aeaeae; stroke:none;" d="M185 318L186 319L185 318z"/>
<path style="fill:#717171; stroke:none;" d="M257 318L258 319L257 318M321 318L322 319L321 318M332 318L333 319L332 318z"/>
<path style="fill:#aeaeae; stroke:none;" d="M56.3333 319.667L56.6667 320.333L56.3333 319.667z"/>
<path style="fill:#717171; stroke:none;" d="M132 319L133 320L132 319M185 319L186 320L185 319M211 319L212 320L211 319z"/>
<path style="fill:#aeaeae; stroke:none;" d="M253 319L254 320L253 319M322 319L323 320L322 319M326 319L327 320L326 319M332 319L333 320L332 319z"/>
<path style="fill:#717171; stroke:none;" d="M336 319L337 320L336 319M60 320L61 321L60 320z"/>
<path style="fill:#aeaeae; stroke:none;" d="M132.333 320.667L132.667 321.333L132.333 320.667M136 320L137 321L136 320z"/>
<path style="fill:#717171; stroke:none;" d="M180 320L180 324L181 324L180 320z"/>
<path style="fill:#aeaeae; stroke:none;" d="M207.333 320.667L207.667 321.333L207.333 320.667M211 320L211 323L212 323L211 320M258 320L259 321L258 320z"/>
<path style="fill:#717171; stroke:none;" d="M331 320L332 321L331 320M55 321L56 322L55 321M136 321L136 324L137 324L136 321z"/>
<path style="fill:#aeaeae; stroke:none;" d="M254 321L255 322L254 321M260 321L261 322L260 321M323 321L324 322L323 321M327 321L328 322L327 321M331 321L332 322L331 321z"/>
<path style="fill:#717171; stroke:none;" d="M335 321L336 322L335 321M54 322L55 323L54 322z"/>
<path style="fill:#aeaeae; stroke:none;" d="M59 322L60 323L59 322M73 322L73 323L87 323L73 322M184 322L184 328L185 328L184 322z"/>
<path style="fill:#717171; stroke:none;" d="M207 322L207 328L208 328L207 322z"/>
<path style="fill:#aeaeae; stroke:none;" d="M255 322L256 323L255 322M262 322L263 323L262 322z"/>
<path style="fill:#717171; stroke:none;" d="M263 322L264 323L263 322M330 322L331 323L330 322M52 323L53 324L52 323z"/>
<path style="fill:#aeaeae; stroke:none;" d="M53 323L54 324L53 323M58 323L59 324L58 323z"/>
<path style="fill:#717171; stroke:none;" d="M256 323L257 324L256 323M265 323L266 324L265 323z"/>
<path style="fill:#aeaeae; stroke:none;" d="M324 323L325 324L324 323M328 323L329 324L328 323z"/>
<path style="fill:#717171; stroke:none;" d="M334 323L335 324L334 323z"/>
<path style="fill:#aeaeae; stroke:none;" d="M43 324L43 325L50 325L43 324M57 324L58 325L57 324z"/>
<path style="fill:#717171; stroke:none;" d="M148 324L148 327L149 327L148 324M160 324L160 341L161 341L160 324z"/>
<path style="fill:#aeaeae; stroke:none;" d="M180.333 324.667L180.667 325.333L180.333 324.667z"/>
<path style="fill:#717171; stroke:none;" d="M257 324L258 325L257 324z"/>
<path style="fill:#aeaeae; stroke:none;" d="M258 324L259 325L258 324M267 324L268 325L267 324M329 324L330 325L329 324M333 324L334 325L333 324z"/>
<path style="fill:#717171; stroke:none;" d="M56 325L57 326L56 325z"/>
<path style="fill:#aeaeae; stroke:none;" d="M260 325L261 326L260 325M269 325L270 326L269 325z"/>
<path style="fill:#717171; stroke:none;" d="M325 325L326 326L325 325M333 325L334 326L333 325M54 326L55 327L54 326M136 326L136 329L137 329L136 326M180 326L180 329L181 329L180 326z"/>
<path style="fill:#aeaeae; stroke:none;" d="M211 326L211 329L212 329L211 326z"/>
<path style="fill:#717171; stroke:none;" d="M262 326L263 327L262 326z"/>
<path style="fill:#aeaeae; stroke:none;" d="M332 326L333 327L332 326M43 327L43 328L50 328L43 327M54 327L55 328L54 327M149 327L149 328L156 328L149 327z"/>
<path style="fill:#717171; stroke:none;" d="M264 327L265 328L264 327z"/>
<path style="fill:#aeaeae; stroke:none;" d="M265 327L266 328L265 327z"/>
<path style="fill:#717171; stroke:none;" d="M326 327L327 328L326 327M43 328L43 342L44 342L43 328M50 328L51 329L50 328z"/>
<path style="fill:#aeaeae; stroke:none;" d="M156 328L156 338L157 338L156 328M207.333 328.667L207.667 329.333L207.333 328.667z"/>
<path style="fill:#717171; stroke:none;" d="M266 328L267 329L266 328z"/>
<path style="fill:#aeaeae; stroke:none;" d="M272 328L273 329L272 328M331 328L332 329L331 328M51 329L52 330L51 329M55 329L56 330L55 329M132 329L133 330L132 329M136 329L137 330L136 329z"/>
<path style="fill:#717171; stroke:none;" d="M211.333 329.667L211.667 330.333L211.333 329.667z"/>
<path style="fill:#aeaeae; stroke:none;" d="M268 329L269 330L268 329M327 329L327 342L328 342L327 329z"/>
<path style="fill:#717171; stroke:none;" d="M331 329L331 342L332 342L331 329M56 330L57 331L56 330M132 330L133 331L132 330M185 330L186 331L185 330M273 330L274 331L273 330z"/>
<path style="fill:#aeaeae; stroke:none;" d="M52 331L53 332L52 331z"/>
<path style="fill:#717171; stroke:none;" d="M137 331L138 332L137 331z"/>
<path style="fill:#aeaeae; stroke:none;" d="M181 331L182 332L181 331M185 331L186 332L185 331z"/>
<path style="fill:#717171; stroke:none;" d="M206 331L207 332L206 331z"/>
<path style="fill:#aeaeae; stroke:none;" d="M219.333 331.667L219.667 332.333L219.333 331.667z"/>
<path style="fill:#717171; stroke:none;" d="M223.333 331.667L223.667 332.333L223.333 331.667z"/>
<path style="fill:#aeaeae; stroke:none;" d="M269 331L270 332L269 331M273 331L273 335L274 335L273 331M57 332L58 333L57 332M137 332L138 333L137 332z"/>
<path style="fill:#717171; stroke:none;" d="M181 332L182 333L181 332z"/>
<path style="fill:#aeaeae; stroke:none;" d="M206 332L207 333L206 332M210 332L211 333L210 332z"/>
<path style="fill:#717171; stroke:none;" d="M269.333 332.667L269.667 333.333L269.333 332.667M53 333L54 334L53 333M58 333L59 334L58 333M133 333L134 334L133 333M186 333L187 334L186 333M210 333L211 334L210 333M219.333 333.667L219.667 334.333L219.333 333.667z"/>
<path style="fill:#aeaeae; stroke:none;" d="M223 333L224 334L223 333z"/>
<path style="fill:#717171; stroke:none;" d="M240 333L241 334L240 333z"/>
<path style="fill:#aeaeae; stroke:none;" d="M54 334L55 335L54 334M58 334L59 335L58 334M182 334L183 335L182 334M205 334L206 335L205 334M240 334L241 335L240 334M244 334L245 335L244 334M269.333 334.667L269.667 335.333L269.333 334.667z"/>
<path style="fill:#717171; stroke:none;" d="M54 335L55 336L54 335M59 335L60 336L59 335M134 335L135 336L134 335z"/>
<path style="fill:#aeaeae; stroke:none;" d="M139 335L140 336L139 335M187 335L188 336L187 335z"/>
<path style="fill:#717171; stroke:none;" d="M204 335L205 336L204 335M209 335L210 336L209 335z"/>
<path style="fill:#aeaeae; stroke:none;" d="M224 335L225 336L224 335z"/>
<path style="fill:#717171; stroke:none;" d="M239 335L240 336L239 335M244 335L245 336L244 335M273 335L274 336L273 335z"/>
<path style="fill:#aeaeae; stroke:none;" d="M55 336L56 337L55 336M135 336L136 337L135 336M140 336L141 337L140 336z"/>
<path style="fill:#717171; stroke:none;" d="M183 336L184 337L183 336z"/>
<path style="fill:#aeaeae; stroke:none;" d="M188 336L189 337L188 336z"/>
<path style="fill:#717171; stroke:none;" d="M203 336L204 337L203 336z"/>
<path style="fill:#aeaeae; stroke:none;" d="M208 336L209 337L208 336z"/>
<path style="fill:#717171; stroke:none;" d="M220 336L221 337L220 336M225 336L226 337L225 336z"/>
<path style="fill:#aeaeae; stroke:none;" d="M243 336L244 337L243 336z"/>
<path style="fill:#717171; stroke:none;" d="M268 336L269 337L268 336z"/>
<path style="fill:#aeaeae; stroke:none;" d="M60 337L61 338L60 337M142 337L143 338L142 337M184 337L185 338L184 337z"/>
<path style="fill:#717171; stroke:none;" d="M190 337L191 338L190 337z"/>
<path style="fill:#aeaeae; stroke:none;" d="M202 337L203 338L202 337M221 337L222 338L221 337M226 337L227 338L226 337z"/>
<path style="fill:#717171; stroke:none;" d="M237 337L238 338L237 337z"/>
<path style="fill:#aeaeae; stroke:none;" d="M252 337L252 341L253 341L254 337L252 337z"/>
<path style="fill:#717171; stroke:none;" d="M254 337L255 338L254 337M267 337L268 338L267 337z"/>
<path style="fill:#aeaeae; stroke:none;" d="M272 337L273 338L272 337z"/>
<path style="fill:#717171; stroke:none;" d="M56 338L57 339L56 338M61 338L62 339L61 338z"/>
<path style="fill:#aeaeae; stroke:none;" d="M73 338L73 339L88 339L73 338M99 338L99 339C103.913 339 111.041 337.436 114 342C115.343 336.02 102.716 338 99 338z"/>
<path style="fill:#717171; stroke:none;" d="M114 338L115 339L114 338z"/>
<path style="fill:#aeaeae; stroke:none;" d="M144 338L145 339L144 338z"/>
<path style="fill:#717171; stroke:none;" d="M145.667 338.333L146.333 338.667L145.667 338.333M152.667 338.333L153.333 338.667L152.667 338.333z"/>
<path style="fill:#aeaeae; stroke:none;" d="M154.667 338.333L155.333 338.667L154.667 338.333M185 338L186 339L185 338M192 338L193 339L192 338z"/>
<path style="fill:#717171; stroke:none;" d="M193 338L194 339L193 338M198.667 338.333L199.333 338.667L198.667 338.333z"/>
<path style="fill:#aeaeae; stroke:none;" d="M200 338L201 339L200 338M228 338L229 339L228 338z"/>
<path style="fill:#717171; stroke:none;" d="M229.667 338.333L230.333 338.667L229.667 338.333M233.667 338.333L234.333 338.667L233.667 338.333z"/>
<path style="fill:#aeaeae; stroke:none;" d="M235.667 338.333L236.333 338.667L235.667 338.333z"/>
<path style="fill:#717171; stroke:none;" d="M242 338L243 339L242 338z"/>
<path style="fill:#aeaeae; stroke:none;" d="M256 338L257 339L256 338z"/>
<path style="fill:#717171; stroke:none;" d="M257 338L257 339L260 339L257 338M263.667 338.333L264.333 338.667L263.667 338.333z"/>
<path style="fill:#aeaeae; stroke:none;" d="M265 338L266 339L265 338M61 339L62 340L61 339M138 339L139 340L138 339M186 339L187 340L186 339M205 339L206 340L205 339z"/>
<path style="fill:#717171; stroke:none;" d="M241 339L242 340L241 339M57 340L58 341L57 340M62 340L63 341L62 340M139 340L140 341L139 340M187 340L188 341L187 340z"/>
<path style="fill:#aeaeae; stroke:none;" d="M188 340L189 341L188 340z"/>
<path style="fill:#717171; stroke:none;" d="M204 340L205 341L204 340z"/>
<path style="fill:#aeaeae; stroke:none;" d="M224 340L225 341L224 340M239 340L240 341L239 340z"/>
<path style="fill:#717171; stroke:none;" d="M269 340L270 341L269 340z"/>
<path style="fill:#aeaeae; stroke:none;" d="M58 341L59 342L58 341z"/>
<path style="fill:#717171; stroke:none;" d="M141 341L142 342L141 341z"/>
<path style="fill:#aeaeae; stroke:none;" d="M142 341L143 342L142 341M156 341L157 342L156 341z"/>
<path style="fill:#717171; stroke:none;" d="M157 341L158 342L157 341M189 341L190 342L189 341z"/>
<path style="fill:#aeaeae; stroke:none;" d="M190 341L191 342L190 341M201 341L202 342L201 341z"/>
<path style="fill:#717171; stroke:none;" d="M202 341L203 342L202 341z"/>
<path style="fill:#aeaeae; stroke:none;" d="M226 341L227 342L226 341M237 341L238 342L237 341z"/>
<path style="fill:#717171; stroke:none;" d="M238 341L239 342L238 341M253 341L254 342L253 341z"/>
<path style="fill:#aeaeae; stroke:none;" d="M254 341L255 342L254 341z"/>
<path style="fill:#717171; stroke:none;" d="M267 341L268 342L267 341M145 342L145 343L153 343L145 342M193 342L193 343L200 343L193 342M229 342L229 343L235 343L229 342M258 342L258 343L264 343L258 342z"/>
<path style="fill:#aeaeae; stroke:none;" d="M380 363L379 369L380 369L380 363z"/>
<path style="fill:#717171; stroke:none;" d="M0.333333 370.667L0.666667 371.333L0.333333 370.667z"/>
<path style="fill:#aeaeae; stroke:none;" d="M378.333 370.667L378.667 371.333L378.333 370.667M0 372L4 378L0 372M377 372L378 373L377 372z"/>
<path style="fill:#717171; stroke:none;" d="M1 373L3 376L1 373z"/>
<path style="fill:#aeaeae; stroke:none;" d="M376 374L377 375L376 374z"/>
<path style="fill:#fdfdfd; stroke:none;" d="M0 375L3 378L0 375z"/>
<path style="fill:#aeaeae; stroke:none;" d="M375.333 375.667L375.667 376.333L375.333 375.667z"/>
<path style="fill:#717171; stroke:none;" d="M3 376L4 377L3 376M4 377L5 378L4 377z"/>
<path style="fill:#aeaeae; stroke:none;" d="M374 377L375 378L374 377z"/>
</svg>
