<?xml version="1.0" standalone="yes"?>
<svg xmlns="http://www.w3.org/2000/svg" width="249" height="253">
<path style="fill:#fdfdfd; stroke:none;" d="M0 0L0 13C13.9336 3.3111 26.4162 5 43 5L106 5L199 5C210.344 5 227.404 1.72717 236.957 8.93904C250.589 19.2313 245 46.947 245 62L245 197C245 211.807 249.917 235.819 237.957 246.812C226.976 256.904 202.001 252 188 252L54 252C37.9359 252 11.7446 257.554 1 243L0 243L0 253L249 253L249 0L0 0z"/>
<path style="fill:#a9a9aa; stroke:none;" d="M11 5L12 6L11 5z"/>
<path style="fill:#7f7f7f; stroke:none;" d="M8 7L8 8L15 6L8 7z"/>
<path style="fill:#262426; stroke:none;" d="M15 5.51775C-6.95725 10.2023 0 39.9494 0 57L0 192L0 228C0 233.176 -0.930225 239.319 2.14815 243.826C11.1497 257.006 43.051 251 57 251L174 251C191.475 251 212.978 254.406 230 250.471C250.262 245.787 244 214.317 244 199L244 65C244 50.8882 248.98 24.8995 240.351 13.0185C230.32 -0.794113 199.872 5 185 5L71 5C53.3486 5 32.2598 1.83536 15 5.51775z"/>
<path style="fill:#7f7f7f; stroke:none;" d="M227 5L227 6L235 8L235 7L227 5z"/>
<path style="fill:#a9a9aa; stroke:none;" d="M230 5L231 6L230 5M8 6L9 7L8 6M233 6L234 7L233 6M5 9L8 8L5 9M235 7L236 8L235 7z"/>
<path style="fill:#7f7f7f; stroke:none;" d="M6 8L7 9L6 8z"/>
<path style="fill:#a9a9aa; stroke:none;" d="M236 8L237 9L236 8M4 9L5 10L4 9z"/>
<path style="fill:#7f7f7f; stroke:none;" d="M237 9L238 10L237 9M3 10L4 11L3 10M238 10L241 13L238 10z"/>
<path style="fill:#a9a9aa; stroke:none;" d="M239 10L240 11L239 10M2 11L0 14L2 11M240 11L241 12L240 11z"/>
<path style="fill:#7f7f7f; stroke:none;" d="M2 12L3 13L2 12M1 13L2 14L1 13z"/>
<path style="fill:#a9a9aa; stroke:none;" d="M241 13L242 14L241 13z"/>
<path style="fill:#7f7f7f; stroke:none;" d="M0.333333 14.6667L0.666667 15.3333L0.333333 14.6667M241 14L242 15L241 14z"/>
<path style="fill:#a9a9aa; stroke:none;" d="M242 15L243 16L242 15z"/>
<path style="fill:#7f7f7f; stroke:none;" d="M242 16L243 17L242 16z"/>
<path style="fill:#8f37a8; stroke:none;" d="M75 178C74.8744 175.126 75.0223 169.936 71.6968 168.697C68.2072 167.397 62.387 170.333 59 171.29C48.6557 174.213 31.7252 176.925 24.858 165.96C18.0835 155.143 31.3097 140.25 38.0895 133.001C40.317 130.619 45.6165 127.285 46.0787 123.834C46.5063 120.642 42.4914 117.843 40.5748 115.83C34.8335 109.799 28.9545 103.714 25.5147 96C24.53 93.7918 23.6973 91.3965 23.3295 89C19.339 63.0008 61.4895 76.6179 73 79C77.4886 65.8477 80.842 39.6309 99 37.9776C114.9 36.5299 121.713 67.9502 124 79C137.616 76.9892 150.986 69.5977 165 74.6134C189.252 83.2937 160.641 114.504 150 122C154.634 131.937 165.418 138.158 170.815 148C172.185 150.499 173.169 153.23 173.829 156C175.919 164.762 170.189 170.734 162 172.76C148.709 176.049 136.968 169.059 124 168C120.607 182.893 138.125 178 149 178L232 178L232 66C232 54.9055 236.242 32.5591 229.991 23.1049C222.554 11.8578 193.666 17 182 17L57 17C45.6935 17 21.5342 12.5059 13.419 22.1088C6.95247 29.7608 10 45.6373 10 55L10 142L10 168C10.0012 170.617 9.25048 175.109 11.6034 176.972C15.1477 179.779 24.6802 178 29 178L75 178z"/>
<path style="fill:#a9a9aa; stroke:none;" d="M243 17L244 57L244 129L244 200L243 240L244 240C248.032 223.066 245 202.392 245 185L245 74L245 34C245 28.5193 246.2 21.6843 243 17z"/>
<path style="fill:#7f7f7f; stroke:none;" d="M243 19L244 20L243 19z"/>
<path style="fill:#8f37a8; stroke:none;" d="M97.0031 46.7863C79.8406 52.3642 74.8658 95.6902 102 88.3588C118.447 83.915 115.668 74.4781 110.68 61C108.739 55.7566 104.538 44.3373 97.0031 46.7863M72 88C63.2729 83.4014 51.8777 80.8008 42 81.0154C37.7324 81.1082 32.3627 82.0373 31.3611 87.0185C29.6872 95.343 47.2367 118.519 56 115.929C70.3766 111.679 69.2264 99.6177 72 88M126 87C126.014 92.2159 126.256 97.8675 127.228 102.996C127.906 106.58 130.217 108.603 133.015 110.706C135.859 112.843 140.09 117.132 144 116.252C156.439 113.452 178.729 81.0172 154 81.0077C150.243 81.0063 146.67 81.6659 143 82.3997C137.171 83.5654 131.706 85.4431 126 87M80 91L79 100L88 94L80 91M109 95L118 100L117 91L109 95M97 100.682C92.095 101.793 80.668 107.417 78.6034 112.21C73.3212 124.471 78.7831 136.289 89 142.15C92.2355 144.006 96.0547 147.006 100 146.243C105.184 145.24 116.901 138.947 118.772 133.815C123.439 121.014 119.062 110.565 108 104.281C104.622 102.362 101.08 99.7581 97 100.682z"/>
<path style="fill:#262426; stroke:none;" d="M97.0008 113.627C84.7924 115.598 87.7927 134.321 99.9992 132.771C113.17 131.098 109.724 111.572 97.0008 113.627z"/>
<path style="fill:#8f37a8; stroke:none;" d="M68 118L62 125L69 128L68 118M129 118L128 128L136 124L136 123L129 118M72 159C69.7812 149.706 69.4068 128.921 54 130.255C45.9781 130.95 27.1435 153.3 32.1829 161.772C38.335 172.114 63.9569 161.717 72 159M142 130.252C132.457 132.044 120.51 149.117 127.029 158.49C131.847 165.418 152.643 166.492 159.995 164.811C175.588 161.245 156.223 139.882 150.999 135.171C148.699 133.096 145.432 129.607 142 130.252M79 147C79.0865 154.298 81.4154 154.72 88 153L79 147M110 151L110 153L117 156L118 147L110 151M97 157.742C90.0086 159.04 73.5571 169.249 85.314 176.972C89.7312 179.874 105.833 179.152 110.856 177.682C114.617 176.581 117.104 167.909 114.933 164.699C112.602 161.253 100.967 157.006 97 157.742z"/>
<path style="fill:#7f7f7f; stroke:none;" d="M25 202L25 203L33 203L25 202M51 202L51 203L54 204L51 202M66 202L66 203L73 203L66 202M85 202L85 203L98 203L85 202M109.667 202.333L110.333 202.667L109.667 202.333M124 203L124 204L128 203L124 203M131 202L131 203L134 203L131 202M147.667 202.333L148.333 202.667L147.667 202.333z"/>
<path style="fill:#a9a9aa; stroke:none;" d="M149 202L149 203L153 203L149 202z"/>
<path style="fill:#7f7f7f; stroke:none;" d="M153.667 202.333L154.333 202.667L153.667 202.333M158 202L158 203L176 203L158 202M179 202L179 203L182 203L179 202M189 202L189 203L193 203L189 202M208 202L208 203L212 203L208 202z"/>
<path style="fill:#a9a9aa; stroke:none;" d="M24 203L24 226L25 226L24 203z"/>
<path style="fill:#fdfdfd; stroke:none;" d="M25 203L25 226L27 226L27 216L40 226C35.9742 213.274 42.26 203.002 25 203z"/>
<path style="fill:#a9a9aa; stroke:none;" d="M35 203L36 204L35 203M50 203L51 204L50 203z"/>
<path style="fill:#fdfdfd; stroke:none;" d="M51 203L42 226C44.7511 224.325 45.1721 221.634 47.5093 219.603C54.1841 213.802 57.5713 223.442 62 226L53 203L51 203z"/>
<path style="fill:#a9a9aa; stroke:none;" d="M65 203L65 226L66 226L65 203z"/>
<path style="fill:#fdfdfd; stroke:none;" d="M66 203L66 226L68 226C68.0085 223.584 67.6107 220.439 69.0278 218.318C70.97 215.411 75.0687 216.395 77.5664 214.258C83.2044 209.434 77.5272 203.398 72.0039 203.044C70.0142 202.916 67.9927 203 66 203z"/>
<path style="fill:#7f7f7f; stroke:none;" d="M76 203L77 204L76 203z"/>
<path style="fill:#fdfdfd; stroke:none;" d="M85 203L85 226L98 226L98 224C90.5499 223.994 87.0957 223.095 87 215L97 215L97 213C90.5271 212.977 87.2291 212.036 87 205L98 205L98 203L85 203M109 203L117 226L119 226L127 203L118 222C116.046 215.994 114.656 206.423 109 203z"/>
<path style="fill:#a9a9aa; stroke:none;" d="M111 203L112 204L111 203M127 203L128 204L127 203M131 203L131 226L132 226L131 203z"/>
<path style="fill:#fdfdfd; stroke:none;" d="M132 203L132 226L134 226L134 203L132 203z"/>
<path style="fill:#7f7f7f; stroke:none;" d="M144 203L143 205L144 203z"/>
<path style="fill:#a9a9aa; stroke:none;" d="M145 203L146 204L145 203z"/>
<path style="fill:#fdfdfd; stroke:none;" d="M156 223C145.986 225.355 135.92 214.242 146.094 206.579C149.02 204.375 152.578 204.921 156 205L156 203C152.794 203 149.058 202.542 146.015 203.742C130.196 209.982 147.252 235.382 156 223z"/>
<path style="fill:#7f7f7f; stroke:none;" d="M156 203L157 204L156 203z"/>
<path style="fill:#a9a9aa; stroke:none;" d="M158.333 203.667L158.667 204.333L158.333 203.667z"/>
<path style="fill:#fdfdfd; stroke:none;" d="M159 203L159 205L166 205L166 226L168 226L168 205L176 205L176 203L159 203z"/>
<path style="fill:#a9a9aa; stroke:none;" d="M179 203L179 226L180 226L179 203z"/>
<path style="fill:#fdfdfd; stroke:none;" d="M180 203L180 226L182 226L182 203L180 203z"/>
<path style="fill:#a9a9aa; stroke:none;" d="M188 203L188 226L189 226L188 203z"/>
<path style="fill:#fdfdfd; stroke:none;" d="M189 203L189 226L191 226L191 206L192 206L199 226L201 226L208 206L209 206L209 226L211 226L211 203C204.129 205.163 202.678 215.987 200 222L193 203L189 203z"/>
<path style="fill:#a9a9aa; stroke:none;" d="M207 203L208 204L207 203M211 203L211 226L212 226L211 203z"/>
<path style="fill:#7f7f7f; stroke:none;" d="M37 204L38 205L37 204M78 204L79 205L78 204z"/>
<path style="fill:#a9a9aa; stroke:none;" d="M124 204L125 205L124 204z"/>
<path style="fill:#7f7f7f; stroke:none;" d="M127 204L128 205L127 204z"/>
<path style="fill:#a9a9aa; stroke:none;" d="M150 204L151 205L150 204M156 204L157 205L156 204z"/>
<path style="fill:#7f7f7f; stroke:none;" d="M193 204L194 205L193 204z"/>
<path style="fill:#262426; stroke:none;" d="M27 205C27.0599 221.938 43.6635 205.403 27 205z"/>
<path style="fill:#7f7f7f; stroke:none;" d="M33 205L34 206L33 205z"/>
<path style="fill:#a9a9aa; stroke:none;" d="M34 205L35 206L34 205z"/>
<path style="fill:#7f7f7f; stroke:none;" d="M49 205L50 206L49 205z"/>
<path style="fill:#262426; stroke:none;" d="M68 205L68 214C78.4727 213.876 78.4207 205.252 68 205z"/>
<path style="fill:#7f7f7f; stroke:none;" d="M74 205L75 206L74 205z"/>
<path style="fill:#a9a9aa; stroke:none;" d="M87 205L87 212L88 212L87 205z"/>
<path style="fill:#7f7f7f; stroke:none;" d="M109 205L110 206L109 205M112 205L113 206L112 205z"/>
<path style="fill:#a9a9aa; stroke:none;" d="M142 205L143 206L142 205M146 205L147 206L146 205z"/>
<path style="fill:#7f7f7f; stroke:none;" d="M147 205L148 206L147 205M154 205L155 206L154 205z"/>
<path style="fill:#a9a9aa; stroke:none;" d="M155 205L156 206L155 205z"/>
<path style="fill:#7f7f7f; stroke:none;" d="M165 205L165 226L166 226L165 205M168 205L168 226L169 226L168 205z"/>
<path style="fill:#a9a9aa; stroke:none;" d="M193 205L194 206L193 205M206 205L207 206L206 205z"/>
<path style="fill:#7f7f7f; stroke:none;" d="M35 206L36 207L35 206z"/>
<path style="fill:#a9a9aa; stroke:none;" d="M38 206L39 207L38 206M51 206L52 207L51 206M54 206L55 207L54 206M76 206L77 207L76 206M79 206L80 207L79 206M112 206L113 207L112 206z"/>
<path style="fill:#7f7f7f; stroke:none;" d="M123 206L124 207L123 206z"/>
<path style="fill:#a9a9aa; stroke:none;" d="M126 206L127 207L126 206z"/>
<path style="fill:#7f7f7f; stroke:none;" d="M141 206L142 207L141 206M145 206L146 207L145 206z"/>
<path style="fill:#a9a9aa; stroke:none;" d="M191 206L192 207L191 206M208 206L209 207L208 206z"/>
<path style="fill:#7f7f7f; stroke:none;" d="M48 207L49 208L48 207M51.6667 207.333L52.3333 207.667L51.6667 207.333z"/>
<path style="fill:#a9a9aa; stroke:none;" d="M110 207L111 208L110 207M123 207L124 208L123 207z"/>
<path style="fill:#7f7f7f; stroke:none;" d="M126 207L127 208L126 207M144 207L145 208L144 207M191 207L192 208L191 207M194 207L195 208L194 207M205 207L206 208L205 207z"/>
<path style="fill:#a9a9aa; stroke:none;" d="M36 208L36 211L37 211L36 208M48 208L49 209L48 208z"/>
<path style="fill:#262426; stroke:none;" d="M51 208L49 216L55 216L51 208z"/>
<path style="fill:#7f7f7f; stroke:none;" d="M55 208L56 209L55 208z"/>
<path style="fill:#a9a9aa; stroke:none;" d="M77 208L77 211L78 211L77 208z"/>
<path style="fill:#7f7f7f; stroke:none;" d="M110 208L111 209L110 208M113 208L114 209L113 208z"/>
<path style="fill:#a9a9aa; stroke:none;" d="M140 208L141 209L140 208M143 208L144 209L143 208M205 208L206 209L205 208M207 208L208 209L207 208z"/>
<path style="fill:#7f7f7f; stroke:none;" d="M39 209L40 210L39 209z"/>
<path style="fill:#a9a9aa; stroke:none;" d="M50 209L51 210L50 209M55 209L56 210L55 209z"/>
<path style="fill:#7f7f7f; stroke:none;" d="M80 209L81 210L80 209M122 209L123 210L122 209z"/>
<path style="fill:#a9a9aa; stroke:none;" d="M125 209L126 210L125 209z"/>
<path style="fill:#7f7f7f; stroke:none;" d="M192 209L193 210L192 209M207 209L208 210L207 209M47 210L48 211L47 210M50 210L51 211L50 210M53 210L54 211L53 210z"/>
<path style="fill:#a9a9aa; stroke:none;" d="M111 210L112 211L111 210M122 210L123 211L122 210z"/>
<path style="fill:#7f7f7f; stroke:none;" d="M139.333 210.667L139.667 211.333L139.333 210.667z"/>
<path style="fill:#a9a9aa; stroke:none;" d="M142.333 210.667L142.667 211.333L142.333 210.667M195 210L196 211L195 210z"/>
<path style="fill:#7f7f7f; stroke:none;" d="M204 210L205 211L204 210z"/>
<path style="fill:#a9a9aa; stroke:none;" d="M47 211L48 212L47 211M56 211L57 212L56 211z"/>
<path style="fill:#7f7f7f; stroke:none;" d="M111 211L112 212L111 211z"/>
<path style="fill:#a9a9aa; stroke:none;" d="M114 211L115 212L114 211M193 211L194 212L193 211M206 211L207 212L206 211M35 212L36 213L35 212z"/>
<path style="fill:#7f7f7f; stroke:none;" d="M38 212L39 213L38 212M49 212L50 213L49 212z"/>
<path style="fill:#a9a9aa; stroke:none;" d="M54 212L55 213L54 212z"/>
<path style="fill:#7f7f7f; stroke:none;" d="M76 212L77 213L76 212z"/>
<path style="fill:#a9a9aa; stroke:none;" d="M79 212L80 213L79 212z"/>
<path style="fill:#7f7f7f; stroke:none;" d="M88 212L88 213L97 213L88 212M121 212L122 213L121 212M124 212L125 213L124 212z"/>
<path style="fill:#a9a9aa; stroke:none;" d="M139 212L139 216L140 216L139 212z"/>
<path style="fill:#7f7f7f; stroke:none;" d="M142.333 212.667L142.667 213.333L142.333 212.667M193 212L194 213L193 212M196 212L197 213L196 212M203 212L204 213L203 212M206 212L207 213L206 212M27 213L28 214L27 213M32.6667 213.333L33.3333 213.667L32.6667 213.333z"/>
<path style="fill:#a9a9aa; stroke:none;" d="M37 213L38 214L37 213M46 213L47 214L46 213z"/>
<path style="fill:#7f7f7f; stroke:none;" d="M54 213L55 214L54 213M57 213L58 214L57 213z"/>
<path style="fill:#a9a9aa; stroke:none;" d="M75 213L76 214L75 213z"/>
<path style="fill:#7f7f7f; stroke:none;" d="M97.3333 213.667L97.6667 214.333L97.3333 213.667z"/>
<path style="fill:#a9a9aa; stroke:none;" d="M112 213L113 214L112 213z"/>
<path style="fill:#7f7f7f; stroke:none;" d="M115 213L116 214L115 213z"/>
<path style="fill:#a9a9aa; stroke:none;" d="M121 213L122 214L121 213M196 213L197 214L196 213M203 213L204 214L203 213M36 214L37 215L36 214M48 214L49 215L48 214M57 214L58 215L57 214M68 214L68 215L73 215L68 214z"/>
<path style="fill:#7f7f7f; stroke:none;" d="M112 214L113 215L112 214z"/>
<path style="fill:#a9a9aa; stroke:none;" d="M115 214L116 215L115 214M123 214L124 215L123 214M194 214L195 215L194 214z"/>
<path style="fill:#7f7f7f; stroke:none;" d="M205 214L206 215L205 214M45 215L46 216L45 215M48 215L49 216L48 215z"/>
<path style="fill:#a9a9aa; stroke:none;" d="M55 215L56 216L55 215M76 215L77 216L76 215M87 215L87 223L88 223L87 215z"/>
<path style="fill:#7f7f7f; stroke:none;" d="M120 215L121 216L120 215M123 215L124 216L123 215M142.333 215.667L142.667 216.333L142.333 215.667z"/>
<path style="fill:#a9a9aa; stroke:none;" d="M197 215L198 216L197 215z"/>
<path style="fill:#7f7f7f; stroke:none;" d="M202 215L203 216L202 215M27 216L27 217L33 218L27 216z"/>
<path style="fill:#a9a9aa; stroke:none;" d="M32 216L33 217L32 216z"/>
<path style="fill:#7f7f7f; stroke:none;" d="M35 216L36 217L35 216z"/>
<path style="fill:#a9a9aa; stroke:none;" d="M45 216L46 217L45 216M58 216L59 217L58 216M69 216L69 217L73 217L69 216z"/>
<path style="fill:#7f7f7f; stroke:none;" d="M73.6667 216.333L74.3333 216.667L73.6667 216.333z"/>
<path style="fill:#a9a9aa; stroke:none;" d="M113 216L114 217L113 216z"/>
<path style="fill:#7f7f7f; stroke:none;" d="M116 216L117 217L116 216M139.333 216.667L139.667 217.333L139.333 216.667z"/>
<path style="fill:#a9a9aa; stroke:none;" d="M204 216L205 217L204 216M116 217L117 218L116 217M122 217L123 218L122 217M142.333 217.667L142.667 218.333L142.333 217.667z"/>
<path style="fill:#7f7f7f; stroke:none;" d="M195 217L196 218L195 217M198 217L199 218L198 217M204 217L205 218L204 217z"/>
<path style="fill:#a9a9aa; stroke:none;" d="M33 218L34 219L33 218z"/>
<path style="fill:#7f7f7f; stroke:none;" d="M36 218L37 219L36 218z"/>
<path style="fill:#a9a9aa; stroke:none;" d="M44 218L45 219L44 218M47 218L47 219L57 219L47 218z"/>
<path style="fill:#7f7f7f; stroke:none;" d="M59 218L60 219L59 218z"/>
<path style="fill:#a9a9aa; stroke:none;" d="M119 218L120 219L119 218z"/>
<path style="fill:#7f7f7f; stroke:none;" d="M122 218L123 219L122 218z"/>
<path style="fill:#a9a9aa; stroke:none;" d="M198 218L199 219L198 218M201 218L202 219L201 218M46 219L47 220L46 219M59 219L60 220L59 219z"/>
<path style="fill:#7f7f7f; stroke:none;" d="M114 219L115 220L114 219M117 219L118 220L117 219M143 219L144 220L143 219z"/>
<path style="fill:#a9a9aa; stroke:none;" d="M196 219L197 220L196 219M203 219L204 220L203 219z"/>
<path style="fill:#7f7f7f; stroke:none;" d="M34 220L35 221L34 220z"/>
<path style="fill:#a9a9aa; stroke:none;" d="M37 220L38 221L37 220z"/>
<path style="fill:#7f7f7f; stroke:none;" d="M43 220L44 221L43 220M46 220L47 221L46 220z"/>
<path style="fill:#a9a9aa; stroke:none;" d="M57 220L58 221L57 220M117 220L118 221L117 220M121 220L122 221L121 220z"/>
<path style="fill:#7f7f7f; stroke:none;" d="M140 220L141 221L140 220M196 220L197 221L196 220M199.667 220.333L200.333 220.667L199.667 220.333M38 221L39 222L38 221z"/>
<path style="fill:#a9a9aa; stroke:none;" d="M43 221L44 222L43 221z"/>
<path style="fill:#7f7f7f; stroke:none;" d="M57 221L58 222L57 221M60 221L61 222L60 221z"/>
<path style="fill:#a9a9aa; stroke:none;" d="M115 221L116 222L115 221z"/>
<path style="fill:#7f7f7f; stroke:none;" d="M118 221L119 222L118 221z"/>
<path style="fill:#a9a9aa; stroke:none;" d="M144 221L145 222L144 221M200 221L201 222L200 221M202 221L203 222L202 221z"/>
<path style="fill:#7f7f7f; stroke:none;" d="M35 222L36 223L35 222z"/>
<path style="fill:#a9a9aa; stroke:none;" d="M45 222L46 223L45 222z"/>
<path style="fill:#7f7f7f; stroke:none;" d="M115 222L116 223L115 222M141 222L142 223L141 222z"/>
<path style="fill:#a9a9aa; stroke:none;" d="M145 222L146 223L145 222M197 222L198 223L197 222z"/>
<path style="fill:#7f7f7f; stroke:none;" d="M202 222L203 223L202 222z"/>
<path style="fill:#a9a9aa; stroke:none;" d="M36 223L37 224L36 223z"/>
<path style="fill:#7f7f7f; stroke:none;" d="M39 223L40 224L39 223z"/>
<path style="fill:#a9a9aa; stroke:none;" d="M42 223L43 224L42 223z"/>
<path style="fill:#7f7f7f; stroke:none;" d="M45 223L46 224L45 223z"/>
<path style="fill:#a9a9aa; stroke:none;" d="M58 223L59 224L58 223z"/>
<path style="fill:#7f7f7f; stroke:none;" d="M61 223L62 224L61 223M88 223L88 224L98 224L88 223M120 223L121 224L120 223M142 223L143 224L142 223z"/>
<path style="fill:#a9a9aa; stroke:none;" d="M147 223L148 224L147 223z"/>
<path style="fill:#7f7f7f; stroke:none;" d="M148.667 223.333L149.333 223.667L148.667 223.333M152.667 223.333L153.333 223.667L152.667 223.333z"/>
<path style="fill:#a9a9aa; stroke:none;" d="M154 223L155 224L154 223M61 224L62 225L61 224M116 224L117 225L116 224M198 224L199 225L198 224M201 224L202 225L201 224M37 225L38 226L37 225M40 225L41 226L40 225z"/>
<path style="fill:#7f7f7f; stroke:none;" d="M41 225L42 226L41 225M44 225L45 226L44 225z"/>
<path style="fill:#a9a9aa; stroke:none;" d="M59 225L60 226L59 225z"/>
<path style="fill:#7f7f7f; stroke:none;" d="M116 225L117 226L116 225z"/>
<path style="fill:#a9a9aa; stroke:none;" d="M119 225L120 226L119 225z"/>
<path style="fill:#7f7f7f; stroke:none;" d="M145 225L146 226L145 225z"/>
<path style="fill:#a9a9aa; stroke:none;" d="M146 225L147 226L146 225M154.667 225.333L155.333 225.667L154.667 225.333z"/>
<path style="fill:#7f7f7f; stroke:none;" d="M198 225L199 226L198 225M149 226L149 227L152 227L149 226M243.333 236.667L243.667 237.333L243.333 236.667M242 240L243 241L242 240M0 241L1 242L0 241z"/>
<path style="fill:#a9a9aa; stroke:none;" d="M242 241L243 242L242 241M0 242L1 243L0 242z"/>
<path style="fill:#7f7f7f; stroke:none;" d="M241 242L240 244L241 242M1 243L3 245L1 243z"/>
<path style="fill:#a9a9aa; stroke:none;" d="M241 243L242 244L241 243M1 244L2 245L1 244M240 244L241 245L240 244M2 245L3 246L2 245z"/>
<path style="fill:#7f7f7f; stroke:none;" d="M239 245L240 246L239 245z"/>
<path style="fill:#a9a9aa; stroke:none;" d="M3 246L5 248L3 246z"/>
<path style="fill:#7f7f7f; stroke:none;" d="M4 246L5 247L4 246M238 246L239 247L238 246M5 247L6 248L5 247z"/>
<path style="fill:#a9a9aa; stroke:none;" d="M237 247L238 248L237 247z"/>
<path style="fill:#7f7f7f; stroke:none;" d="M6 248L7 249L6 248M235 248L236 249L235 248z"/>
<path style="fill:#a9a9aa; stroke:none;" d="M236 248L237 249L236 248M7 249L8 250L7 249z"/>
<path style="fill:#7f7f7f; stroke:none;" d="M8 249L9 250L8 249M233 249L234 250L233 249z"/>
<path style="fill:#a9a9aa; stroke:none;" d="M234 249L235 250L234 249M9 250L9 251L14 252L14 251L9 250z"/>
<path style="fill:#7f7f7f; stroke:none;" d="M11.6667 250.333L12.3333 250.667L11.6667 250.333M230.667 250.333L231.333 250.667L230.667 250.333z"/>
<path style="fill:#a9a9aa; stroke:none;" d="M232.667 250.333L233.333 250.667L232.667 250.333z"/>
<path style="fill:#7f7f7f; stroke:none;" d="M14 251L14 252L228 252L208 251L165 251L14 251z"/>
<path style="fill:#a9a9aa; stroke:none;" d="M228 251L228 252L231 252L228 251z"/>
</svg>
