<?xml version="1.0" standalone="yes"?>
<svg xmlns="http://www.w3.org/2000/svg" width="249" height="249">
<path style="fill:#fefefe; stroke:none;" d="M0 0L0 249L249 249L249 0L0 0z"/>
<path style="fill:#b8b8b9; stroke:none;" d="M18 3L18 4L21 4L18 3z"/>
<path style="fill:#677751; stroke:none;" d="M21 3L21 4L231 4L211 3L169 3L21 3z"/>
<path style="fill:#b8b8b9; stroke:none;" d="M231 3L231 4L238 6L238 5L231 3M14 6L17 5L14 6z"/>
<path style="fill:#677751; stroke:none;" d="M17 4L17 5L20 5L17 4z"/>
<path style="fill:#242524; stroke:none;" d="M20 4.46837C-1.04263 8.53996 5 39.5373 5 55L5 186C5 200.061 0.201859 225.069 8.64892 236.996C18.4838 250.882 47.9973 245 63 245L178 245C194.954 245 216.591 248.596 233 244.291C252.939 239.06 247 208.297 247 193L247 60C247 45.9729 251.763 21.328 241.775 10.044C231.251 -1.84659 200.562 4 186 4L75 4C57.4975 4 37.1833 1.14352 20 4.46837z"/>
<path style="fill:#677751; stroke:none;" d="M232.667 4.33333L233.333 4.66667L232.667 4.33333M15 5L16 6L15 5M236 5L237 6L236 5z"/>
<path style="fill:#b8b8b9; stroke:none;" d="M12 6L10 9L12 6z"/>
<path style="fill:#677751; stroke:none;" d="M13 6L14 7L13 6M238 6L244 12L238 6z"/>
<path style="fill:#b8b8b9; stroke:none;" d="M239 6L240 7L239 6z"/>
<path style="fill:#677751; stroke:none;" d="M12 7L13 8L12 7z"/>
<path style="fill:#b8b8b9; stroke:none;" d="M240 7L241 8L240 7z"/>
<path style="fill:#677751; stroke:none;" d="M11 8L12 9L11 8z"/>
<path style="fill:#b8b8b9; stroke:none;" d="M241 8L242 9L241 8M9 9L7 12L9 9M242 9L243 10L242 9z"/>
<path style="fill:#677751; stroke:none;" d="M9 10L10 11L9 10z"/>
<path style="fill:#b8b8b9; stroke:none;" d="M243 10L244 11L243 10z"/>
<path style="fill:#677751; stroke:none;" d="M8 11L9 12L8 11z"/>
<path style="fill:#b8b8b9; stroke:none;" d="M244 11L246 14L244 11z"/>
<path style="fill:#677751; stroke:none;" d="M7 12L6 16L7 16L7 12z"/>
<path style="fill:#b8b8b9; stroke:none;" d="M6 13L7 14L6 13z"/>
<path style="fill:#677751; stroke:none;" d="M244 13L245 14L244 13M245 14L246 20L247 20L245 14M24 16L24 17C41.2493 13.7976 60.4761 16 78 16L180 16L215 16C221.087 16.0004 227.251 15.7332 231.347 21.1049C238.061 29.9085 234 51.3361 234 62L234 172L166 172L166 95L167 55L166 55C163.304 64.1226 165 75.5112 165 85L165 144C165 149.521 162.058 168.372 166.603 171.972C170.294 174.895 180.487 173 185 173L235 173L235 62C235 51.3823 239.235 28.7865 232.486 20.1049C224.275 9.54218 194.174 15 182 15L77 15C60.2177 15 40.3426 12.1092 24 16z"/>
<path style="fill:#b8b8b9; stroke:none;" d="M5 16L6 17L5 16z"/>
<path style="fill:#96c05d; stroke:none;" d="M17 172L41 172L41 94L40.6065 56L32 39L176 39L166.419 57L166 94L166 172L234 172L234 61C234 50.6752 238.144 28.5535 231.347 20.2137C224.206 11.4521 199.309 16 189 16L66 16C54.8197 16 26.9342 10.9491 19.7029 21.0548C12.9399 30.506 17 51.8076 17 63L17 172z"/>
<path style="fill:#b8b8b9; stroke:none;" d="M246 16L247 17L246 16z"/>
<path style="fill:#677751; stroke:none;" d="M5.33333 17.6667L5.66667 18.3333L5.33333 17.6667M22 17L23 18L22 17M21 18L22 19L21 18M20 19L21 20L20 19M19 20L20 21L19 20M18.3333 21.6667L18.6667 22.3333L18.3333 21.6667M17 23L17 26L18 26L17 23M32 41L85 40C74.4962 35.5924 56.4201 39 45 39C40.9318 39 34.8481 37.7407 32 41M123 39L123 40L176 41L162 39L123 39M92 40L92 41L117 41L92 40M174.333 41.6667L174.667 42.3333L174.333 41.6667M33 42L34 43L33 42M34.3333 43.6667L34.6667 44.3333L34.3333 43.6667M173 43L174 44L173 43M35.3333 45.6667L35.6667 46.3333L35.3333 45.6667M172 45L173 46L172 45M36 47L37 48L36 47M171 47L172 48L171 47M37.3333 48.6667L37.6667 49.3333L37.3333 48.6667M170 48L169 51L170 48M38 50L39 51L38 50M168.333 51.6667L168.667 52.3333L168.333 51.6667M39 52L40 53L39 52M40.3333 53.6667L40.6667 54.3333L40.3333 53.6667M167 53L168 54L167 53M41 55L41 172L17 172L17 173C22.1352 173 38.4458 175.658 41.821 171.397C45.7707 166.41 43 151.185 43 145L43 81C43 73.5258 45.3302 61.3384 41 55M50 55L50 56C55.383 56 64.7616 54.0048 68 59L69 59L69 55L50 55M141 70L142 70L139 57L157 56L157 171L137 171C141.039 175.622 152.366 172.016 158 172L158 90C158 81.4116 161.192 65.0317 157.397 57.3179C155.573 53.6127 141.089 53.4522 139.353 57.3179C137.92 60.5059 140.717 66.5319 141 70z"/>
<path style="fill:#96c05d; stroke:none;" d="M50 56L51 171L69 172C67.159 159.709 61.5169 150.245 70.5185 139.015C76.6013 131.426 95.3881 124.992 94.8472 114C94.2777 102.426 74.9806 95.8465 68.8002 87C61.7584 76.9207 67.0561 66.8253 68 56L50 56z"/>
<path style="fill:#677751; stroke:none;" d="M75 60L76 60C79.9765 55.9394 85.649 57 91 57C104.118 57 119.21 54.9549 132 58C128.112 55.0545 122.716 56 118 56L88 56C83.0019 56 77.1651 54.614 75 60z"/>
<path style="fill:#96c05d; stroke:none;" d="M139 57C143.839 69.9824 144.743 82.7524 133.985 92.9066C127.681 98.8578 112.142 104.613 112.648 115C113.13 124.9 130.364 131.468 136.381 138.17C146.246 149.157 141.534 159.615 138 172L157 171L157 56L139 57z"/>
<path style="fill:#677751; stroke:none;" d="M49 57L49 143L50 143L50 84L49 57z"/>
<path style="fill:#96c05d; stroke:none;" d="M77.3943 58.0278C69.3273 63.2617 71.9918 81.4219 79.0046 85.8557C89.9718 92.7896 119.364 92.5412 129.895 84.8912C136.259 80.2687 137.559 62.9944 130.49 58.0278C127.454 55.8951 121.518 57 118 57L89 57C85.5848 57 80.4039 56.0751 77.3943 58.0278z"/>
<path style="fill:#677751; stroke:none;" d="M132.333 59.6667L132.667 60.3333L132.333 59.6667M67 60L67 63L68 63L67 60M74 61L75 62L74 61M133.333 62.6667L133.667 63.3333L133.333 62.6667M66 63L66 84L67 84L66 63M73 64L73 67L74 67L73 64M134 64L134 81L135 81C136.584 75.6412 136.669 69.02 134 64M72 68L72 80L73 80L72 68M142 72L142 79L143 79L142 72M141 80L141 84L142 84L141 80M73 81L74 82L73 81M133.333 81.6667L133.667 82.3333L133.333 81.6667M74 82L75 83L74 82M75 83L76 84L75 83M132 83L133 84L132 83M67.3333 84.6667L67.6667 85.3333L67.3333 84.6667M76 84L77 85L76 84M129 86L132 84L129 86M140.333 84.6667L140.667 85.3333L140.333 84.6667M77.6667 85.3333L78.3333 85.6667L77.6667 85.3333M68 86L69 87L68 86M79 86L80 87L79 86M127.667 86.3333L128.333 86.6667L127.667 86.3333M139 86L140 87L139 86M81 87L82 88L81 87M125 87L126 88L125 87M138.333 87.6667L138.667 88.3333L138.333 87.6667M69 88L70 89L69 88M84.6667 88.3333L85.3333 88.6667L84.6667 88.3333M121.667 88.3333L122.333 88.6667L121.667 88.3333M70 89L71 90L70 89M87 89L87 90L120 90L87 89M137 89L138 90L137 89M71 90L72 91L71 90M136 90L137 91L136 90M72 91L73 92L72 91M135 91L136 92L135 91M73 92L74 93L73 92M134 92L135 93L134 92M74 93L75 94L74 93M133 93L134 94L133 93M75 94L78 96L75 94M130 96L133 94L130 96M78 96L79 97L78 96M129 96L130 97L129 96M79.6667 97.3333L80.3333 97.6667L79.6667 97.3333M127.667 97.3333L128.333 97.6667L127.667 97.3333M81 98L82 99L81 98M126 98L127 99L126 98M82 99L83 100L82 99M125 99L126 100L125 99M83.6667 100.333L84.3333 100.667L83.6667 100.333M123 100L124 101L123 100M85 101L86 102L85 101M122 101L123 102L122 101M86.6667 102.333L87.3333 102.667L86.6667 102.333M120.667 102.333L121.333 102.667L120.667 102.333M88 103L89 104L88 103M119 103L120 104L119 103M89 104L90 105L89 104M118 104L119 105L118 104M90 105L91 106L90 105M115 107L118 105L115 107M91 106L94 109L91 106M114.333 107.667L114.667 108.333L114.333 107.667M94 109L94 120L95 120L94 109M113 109L114 110L113 109M112 110L112 119L113 119L112 110M113 119L114 120L113 119M93 120L94 121L93 120M114 120L115 121L114 120M92 121L93 122L92 121M115 121L116 122L115 121M91 122L92 123L91 122M116 122L117 123L116 122M88 125L91 123L88 125M117 123L118 124L117 123M118.667 124.333L119.333 124.667L118.667 124.333M87 125L88 126L87 125M120 125L121 126L120 125M85.6667 126.333L86.3333 126.667L85.6667 126.333M121 126L122 127L121 126M84 127L85 128L84 127M98 127L99 135L100 135L98 127M108 127L108 134L109 134L110 127L108 127M122.667 127.333L123.333 127.667L122.667 127.333M82.6667 128.333L83.3333 128.667L82.6667 128.333M96 128L90 133L97 129L96 128z"/>
<path style="fill:#96c05d; stroke:none;" d="M73 157C91.1008 156.95 98.9529 145.069 99 128C86.2949 132.809 73.0413 142.617 73 157M109 128C109.007 138.326 111.636 150.567 122.001 155.431C124.715 156.705 131.639 158.984 134.103 156.357C136.743 153.543 134.665 147.841 132.853 145.17C128.025 138.056 116.932 131.007 109 128z"/>
<path style="fill:#677751; stroke:none;" d="M111 128L112 129L111 128M124 128L125 129L124 128M81 129L82 130L81 129M112.667 129.333L113.333 129.667L112.667 129.333M125.667 129.333L126.333 129.667L125.667 129.333M78 132L81 130L78 132M114 130L115 131L114 130M127 130L128 131L127 130M115.667 131.333L116.333 131.667L115.667 131.333M128 131L131 133L128 131M77 132L78 133L77 132M117 132L118 133L117 132M76 133L77 134L76 133M88 133L89 134L88 133M118.667 133.333L119.333 133.667L118.667 133.333M131 133L132 134L131 133M74 134L75 135L74 134M87 134L88 135L87 134M120 134L121 135L120 134M132 134L133 135L132 134M73 135L74 136L73 135M85.6667 135.333L86.3333 135.667L85.6667 135.333M121 135L124 137L121 135M133 135L134 136L133 135M72 136L73 137L72 136M84 136L85 137L84 136M98 136L98 140L99 140L98 136M134 136L136 138L136 136L134 136M71 137L72 138L71 137M82.6667 137.333L83.3333 137.667L82.6667 137.333M109 137L109 140L110 140L109 137M124 137L125 138L124 137M70 138L71 139L70 138M81 138L82 139L81 138M126 138L127 139L126 138M136 138L137 139L136 138M80 139L81 140L80 139M127 139L128 140L127 139M137 139L138 140L137 139M69 140L70 141L69 140M79 140L80 141L79 140M128 140L132 143L128 140M138 140L139 141L138 140M68 141L69 142L68 141M78 141L79 142L78 141M110.333 141.667L110.667 142.333L110.333 141.667M139.333 141.667L139.667 142.333L139.333 141.667M77 142L78 143L77 142M97.3333 142.667L97.6667 143.333L97.3333 142.667M67 143L68 144L67 143M76 143L77 144L76 143M111 143L113 149L114 149L111 143M140.333 143.667L140.667 144.333L140.333 143.667M66 144L66 148L67 148L66 144M75 144L76 145L75 144M96.3333 144.667L96.6667 145.333L96.3333 144.667M132 144L133 145L132 144M133 145L134 146L133 145M141 145L141 149L142 149L141 145M74 146L75 147L74 146M95.3333 146.667L95.6667 147.333L95.3333 146.667M134.333 146.667L134.667 147.333L134.333 146.667M73.3333 147.667L73.6667 148.333L73.3333 147.667M65 148L66 164L67 164L65 148M94 148L95 149L94 148M135 148L134 158C137.387 155.41 136.858 151.521 135 148M93 149L94 150L93 149M114 149L115 150L114 149M142 149L142 157L143 157L142 149M72 150L72 157L73 157L72 150M92 150L93 151L92 150M91 151L92 152L91 151M116 151L119 154L116 151M90 152L91 153L90 152M85 155L85 156L90 154L85 155M119 154L120 155L119 154M120.667 155.333L121.333 155.667L120.667 155.333M81 156L81 157L84 157L81 156M123.667 156.333L124.333 156.667L123.667 156.333M74 157L74 158L78 158L74 157M127 157L127 158L131 158L127 157M141 158L141 162L142 162L141 158M140 162L139 168L140 168L140 162M67.3333 164.667L67.6667 165.333L67.3333 164.667M50 165L50 171L51 171L50 165M68.3333 167.667L68.6667 168.333L68.3333 167.667M138.333 168.667L138.667 169.333L138.333 168.667M69 170L51 171L51 172C54.1131 172.038 71.0227 175.366 69 170M77 199L77 200L86 200L77 199M103 199L103 200L107 201L107 200L103 199M118 199L118 200L126 200L118 199M138 199L138 200L141 200L138 199M150.667 199.333L151.333 199.667L150.667 199.333z"/>
<path style="fill:#b8b8b9; stroke:none;" d="M152 199L152 200L156 200L152 199z"/>
<path style="fill:#677751; stroke:none;" d="M156.667 199.333L157.333 199.667L156.667 199.333M162 199L162 200L180 200L162 199z"/>
<path style="fill:#b8b8b9; stroke:none;" d="M77 200L77 223L78 223L77 200z"/>
<path style="fill:#fefefe; stroke:none;" d="M78 200L78 223L80 223L80 213L93 223L87 212C99.3334 205.523 84.9751 200.001 78 200z"/>
<path style="fill:#677751; stroke:none;" d="M88 200L89 201L88 200z"/>
<path style="fill:#fefefe; stroke:none;" d="M103 200L95 223C97.4973 221.298 98.1285 218.484 100.418 216.603C106.843 211.322 110.017 220.084 114 223L106 200L103 200z"/>
<path style="fill:#b8b8b9; stroke:none;" d="M118 200L118 223L119 223L118 200z"/>
<path style="fill:#fefefe; stroke:none;" d="M119 200L119 223L121 223L121 213C126.54 212.984 139.257 207.429 129.606 201.318C126.647 199.445 122.338 200.002 119 200z"/>
<path style="fill:#b8b8b9; stroke:none;" d="M128 200L129 201L128 200z"/>
<path style="fill:#677751; stroke:none;" d="M129 200L130 201L129 200z"/>
<path style="fill:#fefefe; stroke:none;" d="M138 200L138 223L140 223L140 200L138 200z"/>
<path style="fill:#b8b8b9; stroke:none;" d="M140 200L140 223L141 223L140 200z"/>
<path style="fill:#677751; stroke:none;" d="M148 200L146 203L148 200z"/>
<path style="fill:#fefefe; stroke:none;" d="M146 220C149.272 224.631 159.43 223.888 159.623 216.989C159.751 212.446 141.061 202.908 154.959 201.803C156.244 201.701 157.723 201.93 159 202L159 200C154.191 200.001 142.4 200.706 147.873 208.775C149.934 211.813 154.405 212.07 156.248 215.22C159.917 221.49 148.915 220.692 146 220z"/>
<path style="fill:#677751; stroke:none;" d="M159.333 200.667L159.667 201.333L159.333 200.667z"/>
<path style="fill:#b8b8b9; stroke:none;" d="M162.333 200.667L162.667 201.333L162.333 200.667z"/>
<path style="fill:#fefefe; stroke:none;" d="M163 200L163 202L170 202L170 223L172 223L172 202L179 202L179 200L163 200z"/>
<path style="fill:#b8b8b9; stroke:none;" d="M179.333 200.667L179.667 201.333L179.333 200.667z"/>
<path style="fill:#677751; stroke:none;" d="M90 201L91 202L90 201M102 201L103 202L102 201z"/>
<path style="fill:#b8b8b9; stroke:none;" d="M106 201L107 202L106 201M152 201L152 202L155 202L152 201z"/>
<path style="fill:#242524; stroke:none;" d="M80 202L80 211C90.2247 210.524 90.2948 202.479 80 202z"/>
<path style="fill:#677751; stroke:none;" d="M85.6667 202.333L86.3333 202.667L85.6667 202.333z"/>
<path style="fill:#b8b8b9; stroke:none;" d="M102 202L103 203L102 202z"/>
<path style="fill:#242524; stroke:none;" d="M121 202L121 211C131.371 210.749 131.206 202.476 121 202z"/>
<path style="fill:#677751; stroke:none;" d="M126 202L127 203L126 202z"/>
<path style="fill:#b8b8b9; stroke:none;" d="M127 202L128 203L127 202M131 202L132 203L131 202z"/>
<path style="fill:#677751; stroke:none;" d="M150 202L151 203L150 202M157 202L158 203L157 202z"/>
<path style="fill:#b8b8b9; stroke:none;" d="M158 202L159 203L158 202z"/>
<path style="fill:#677751; stroke:none;" d="M169 202L169 223L170 223L169 202M172 202L172 223L173 223L172 202z"/>
<path style="fill:#b8b8b9; stroke:none;" d="M88 203L89 204L88 203M91.3333 203.667L91.6667 204.333L91.3333 203.667z"/>
<path style="fill:#677751; stroke:none;" d="M104 203L105 204L104 203M107 203L108 204L107 203M132 203L133 204L132 203z"/>
<path style="fill:#b8b8b9; stroke:none;" d="M146 203L147 204L146 203z"/>
<path style="fill:#677751; stroke:none;" d="M149 203L150 204L149 203M101 204L102 205L101 204z"/>
<path style="fill:#242524; stroke:none;" d="M104 204L101 213L108 213L104 204z"/>
<path style="fill:#b8b8b9; stroke:none;" d="M105 204L106 205L105 204M107 204L108 205L107 204z"/>
<path style="fill:#677751; stroke:none;" d="M129 204L130 205L129 204z"/>
<path style="fill:#b8b8b9; stroke:none;" d="M132 204L133 205L132 204M103 205L104 206L103 205z"/>
<path style="fill:#677751; stroke:none;" d="M105 205L106 206L105 205z"/>
<path style="fill:#b8b8b9; stroke:none;" d="M148 205L149 206L148 205M89 206L90 207L89 206z"/>
<path style="fill:#677751; stroke:none;" d="M100 206L101 207L100 206M103 206L104 207L103 206z"/>
<path style="fill:#b8b8b9; stroke:none;" d="M108 206L109 207L108 206M130 206L131 207L130 206M146.333 206.667L146.667 207.333L146.333 206.667M100 207L101 208L100 207M106 207L107 208L106 207M149 207L150 208L149 207z"/>
<path style="fill:#677751; stroke:none;" d="M88 208L89 209L88 208z"/>
<path style="fill:#b8b8b9; stroke:none;" d="M91 208L92 209L91 208M102 208L103 209L102 208z"/>
<path style="fill:#677751; stroke:none;" d="M106 208L107 209L106 208M109 208L110 209L109 208z"/>
<path style="fill:#b8b8b9; stroke:none;" d="M132 208L133 209L132 208M150 208L151 209L150 208z"/>
<path style="fill:#677751; stroke:none;" d="M91 209L92 210L91 209M99 209L100 210L99 209M102 209L103 210L102 209z"/>
<path style="fill:#b8b8b9; stroke:none;" d="M109 209L110 210L109 209M129 209L130 210L129 209z"/>
<path style="fill:#677751; stroke:none;" d="M132 209L133 210L132 209M147 209L148 210L147 209z"/>
<path style="fill:#b8b8b9; stroke:none;" d="M152 209L153 210L152 209z"/>
<path style="fill:#677751; stroke:none;" d="M85 210L86 211L85 210z"/>
<path style="fill:#b8b8b9; stroke:none;" d="M86 210L87 211L86 210z"/>
<path style="fill:#677751; stroke:none;" d="M90 210L91 211L90 210z"/>
<path style="fill:#b8b8b9; stroke:none;" d="M99 210L100 211L99 210M101 210L102 211L101 210M107 210L108 211L107 210z"/>
<path style="fill:#677751; stroke:none;" d="M127 210L128 211L127 210z"/>
<path style="fill:#b8b8b9; stroke:none;" d="M128 210L129 211L128 210M131 210L132 211L131 210z"/>
<path style="fill:#677751; stroke:none;" d="M148 210L149 211L148 210z"/>
<path style="fill:#b8b8b9; stroke:none;" d="M154 210L155 211L154 210z"/>
<path style="fill:#677751; stroke:none;" d="M155 210L156 211L155 210M89 211L90 212L89 211M98 211L99 212L98 211M101 211L102 212L101 211M107 211L108 212L107 211M110 211L111 212L110 211z"/>
<path style="fill:#b8b8b9; stroke:none;" d="M121 211L121 212L126 212L121 211z"/>
<path style="fill:#677751; stroke:none;" d="M150 211L151 212L150 211M157 211L158 212L157 211z"/>
<path style="fill:#b8b8b9; stroke:none;" d="M87 212L88 213L87 212M98 212L99 213L98 212M108 212L109 213L108 212z"/>
<path style="fill:#677751; stroke:none;" d="M129 212L130 213L129 212M152 212L153 213L152 212z"/>
<path style="fill:#b8b8b9; stroke:none;" d="M153 212L154 213L153 212M158 212L159 213L158 212z"/>
<path style="fill:#677751; stroke:none;" d="M80 213L80 214L85 214L80 213M111 213L112 214L111 213z"/>
<path style="fill:#b8b8b9; stroke:none;" d="M121 213L121 214L126 214L121 213z"/>
<path style="fill:#677751; stroke:none;" d="M126.667 213.333L127.333 213.667L126.667 213.333z"/>
<path style="fill:#b8b8b9; stroke:none;" d="M155 213L156 214L155 213z"/>
<path style="fill:#677751; stroke:none;" d="M159 213L160 214L159 213M85 214L86 215L85 214z"/>
<path style="fill:#b8b8b9; stroke:none;" d="M88 214L89 215L88 214z"/>
<path style="fill:#677751; stroke:none;" d="M97 214L98 215L97 214z"/>
<path style="fill:#b8b8b9; stroke:none;" d="M111 214L112 215L111 214z"/>
<path style="fill:#677751; stroke:none;" d="M156 214L157 215L156 214M89 215L90 216L89 215z"/>
<path style="fill:#b8b8b9; stroke:none;" d="M97 215L98 216L97 215M100 215L100 216L109 216L100 215M157 215L158 216L157 215z"/>
<path style="fill:#677751; stroke:none;" d="M160 215L160 218L161 218L160 215M86 216L87 217L86 216z"/>
<path style="fill:#b8b8b9; stroke:none;" d="M89 216L90 217L89 216z"/>
<path style="fill:#677751; stroke:none;" d="M96 216L97 217L96 216z"/>
<path style="fill:#b8b8b9; stroke:none;" d="M99 216L100 217L99 216z"/>
<path style="fill:#677751; stroke:none;" d="M109 216L110 217L109 216M112 216L113 217L112 216M157.333 216.667L157.667 217.333L157.333 216.667z"/>
<path style="fill:#b8b8b9; stroke:none;" d="M87 217L88 218L87 217z"/>
<path style="fill:#677751; stroke:none;" d="M90 217L91 218L90 217z"/>
<path style="fill:#b8b8b9; stroke:none;" d="M96 217L97 218L96 217M112 217L113 218L112 217M98 218L99 219L98 218M110 218L111 219L110 218z"/>
<path style="fill:#677751; stroke:none;" d="M113 218L114 219L113 218z"/>
<path style="fill:#b8b8b9; stroke:none;" d="M157 218L158 219L157 218M88 219L89 220L88 219M91 219L92 220L91 219z"/>
<path style="fill:#677751; stroke:none;" d="M95 219L96 220L95 219M98 219L99 220L98 219M110 219L111 220L110 219z"/>
<path style="fill:#b8b8b9; stroke:none;" d="M113 219L114 220L113 219z"/>
<path style="fill:#677751; stroke:none;" d="M156 219L157 220L156 219z"/>
<path style="fill:#b8b8b9; stroke:none;" d="M159 219L160 220L159 219z"/>
<path style="fill:#677751; stroke:none;" d="M92 220L93 221L92 220z"/>
<path style="fill:#b8b8b9; stroke:none;" d="M95 220L96 221L95 220M111 220L112 221L111 220z"/>
<path style="fill:#677751; stroke:none;" d="M145.333 220.667L145.667 221.333L145.333 220.667z"/>
<path style="fill:#b8b8b9; stroke:none;" d="M147.667 220.333L148.333 220.667L147.667 220.333z"/>
<path style="fill:#677751; stroke:none;" d="M149.667 220.333L150.333 220.667L149.667 220.333M153.667 220.333L154.333 220.667L153.667 220.333z"/>
<path style="fill:#b8b8b9; stroke:none;" d="M155 220L156 221L155 220z"/>
<path style="fill:#677751; stroke:none;" d="M89 221L90 222L89 221z"/>
<path style="fill:#b8b8b9; stroke:none;" d="M92 221L93 222L92 221M97 221L98 222L97 221z"/>
<path style="fill:#677751; stroke:none;" d="M111 221L112 222L111 221M114 221L115 222L114 221M158 221L159 222L158 221z"/>
<path style="fill:#b8b8b9; stroke:none;" d="M90 222L91 223L90 222z"/>
<path style="fill:#677751; stroke:none;" d="M93 222L94 223L93 222z"/>
<path style="fill:#b8b8b9; stroke:none;" d="M94 222L95 223L94 222z"/>
<path style="fill:#677751; stroke:none;" d="M97 222L98 223L97 222z"/>
<path style="fill:#b8b8b9; stroke:none;" d="M114 222L115 223L114 222z"/>
<path style="fill:#677751; stroke:none;" d="M146 222L147 223L146 222z"/>
<path style="fill:#b8b8b9; stroke:none;" d="M147 222L148 223L147 222z"/>
<path style="fill:#677751; stroke:none;" d="M156 222L157 223L156 222M150 223L150 224L153 224L150 223M246.333 229.667L246.667 230.333L246.333 229.667M5.33333 230.667L5.66667 231.333L5.33333 230.667z"/>
<path style="fill:#b8b8b9; stroke:none;" d="M246.333 231.667L246.667 232.333L246.333 231.667M5 232L6 233L5 232z"/>
<path style="fill:#677751; stroke:none;" d="M245.333 232.667L245.667 233.333L245.333 232.667M6 233L8 236L6 233z"/>
<path style="fill:#b8b8b9; stroke:none;" d="M245 234L244 237L245 234M6 235L7 236L6 235z"/>
<path style="fill:#677751; stroke:none;" d="M244 235L245 236L244 235z"/>
<path style="fill:#b8b8b9; stroke:none;" d="M7 236L13 243L7 236z"/>
<path style="fill:#677751; stroke:none;" d="M8 237L9 238L8 237M243 237L236 243L236 244L243 237M9 238L10 239L9 238z"/>
<path style="fill:#b8b8b9; stroke:none;" d="M243 238L244 239L243 238z"/>
<path style="fill:#677751; stroke:none;" d="M10 239L11 240L10 239z"/>
<path style="fill:#b8b8b9; stroke:none;" d="M242 239L243 240L242 239z"/>
<path style="fill:#677751; stroke:none;" d="M11 240L12 241L11 240z"/>
<path style="fill:#b8b8b9; stroke:none;" d="M241 240L242 241L241 240z"/>
<path style="fill:#677751; stroke:none;" d="M12 241L13 242L12 241z"/>
<path style="fill:#b8b8b9; stroke:none;" d="M240 241L241 242L240 241z"/>
<path style="fill:#677751; stroke:none;" d="M13 242L14 243L13 242z"/>
<path style="fill:#b8b8b9; stroke:none;" d="M239 242L240 243L239 242M14 243L15 244L14 243z"/>
<path style="fill:#677751; stroke:none;" d="M15 243L16 244L15 243z"/>
<path style="fill:#b8b8b9; stroke:none;" d="M237 243L238 244L237 243M16 244L16 245C37.6616 250.157 64.7284 246 87 246L233 246L233 245L90 245C66.1678 245 39.4378 248.351 16 244z"/>
<path style="fill:#677751; stroke:none;" d="M18.6667 244.333L19.3333 244.667L18.6667 244.333M232.667 244.333L233.333 244.667L232.667 244.333z"/>
<path style="fill:#b8b8b9; stroke:none;" d="M234.667 244.333L235.333 244.667L234.667 244.333z"/>
</svg>
